<svg class="svg-icon" style="width: 1em; height: 1em;vertical-align: middle;fill: currentColor;overflow: hidden;" viewBox="0 0 1024 1024" version="1.1" xmlns="http://www.w3.org/2000/svg"><path d="M500.672 511.936m-416 0a416 416 0 1 0 832 0 416 416 0 1 0-832 0Z" fill="#AEECFF" /><path d="M748.992 962.624a16.128 16.128 0 0 1-11.712-0.832l-36.224-19.008a51.584 51.584 0 0 1-10.176-7.488L523.584 768a6.4 6.4 0 0 1 0-9.024l222.912-222.912a6.4 6.4 0 0 1 9.024 0l222.912 222.912a6.464 6.464 0 0 1 0 9.024l-170.112 170.112a33.28 33.28 0 0 1-10.496 6.656l-48.832 17.856z" fill="#D5E2A6" /><path d="M614.528 721.728l154.88 154.88-15.808 15.744-154.88-154.88zM657.92 678.4l154.88 154.944-15.808 15.744-154.88-154.88zM711.36 624.896l181.76 181.696-28.16 28.032-181.696-181.632zM695.36 939.84s54.656 56.576 108.416 2.816c0 0-27.392 10.304-41.984-13.696 0 0-22.144 26.88-66.432 10.88z" fill="#F1F7D0" /><path d="M756.672 769.6c0 12.288-10.048 22.4-22.4 22.4h-467.2a22.464 22.464 0 0 1-22.4-22.4v-467.2c0-12.288 10.112-22.4 22.4-22.4h467.2c12.288 0 22.4 10.112 22.4 22.4v467.2z" fill="#FFFFFF" /><path d="M308.672 340.032h384v128h-384z" fill="#B7B6B1" /><path d="M308.672 340.032h384v17.024h-384z" fill="#848484" /><path d="M462.912 546.56h-48v-48h-32v48h-48v32h48v48h32v-48h48zM455.488 738.496l-33.92-33.92 33.92-33.92-22.592-22.656-33.984 33.92-33.92-33.92-22.592 22.656 33.92 33.92-33.92 33.92 22.592 22.656 33.92-33.984 33.984 33.984zM544.192 546.56h128.064v32H544.192z" fill="#3F444E" /><path d="M544.192 648h128.064v32H544.192zM544.192 704.576h128.064v32H544.192z" fill="#BC3A2C" /></svg>