<svg class="svg-icon" style="width: 1em; height: 1em;vertical-align: middle;fill: currentColor;overflow: hidden;" viewBox="0 0 1024 1024" version="1.1" xmlns="http://www.w3.org/2000/svg"><path d="M504 511.936m-416 0a416 416 0 1 0 832 0 416 416 0 1 0-832 0Z" fill="#AEECFF" /><path d="M252.032 382.016v355.136c0 12.544 10.304 22.848 22.912 22.848h458.24a22.976 22.976 0 0 0 22.848-22.848V382.016H252.032z" fill="#DDDDDD" /><path d="M286.4 382.016h435.264v343.616H286.4z" fill="#FFFFFF" /><path d="M756.032 382.016V278.912A23.04 23.04 0 0 0 733.12 256h-458.24a22.976 22.976 0 0 0-22.848 22.912v103.104h504z" fill="#FC5B5B" /><path d="M307.392 318.976m-11.968 0a11.968 11.968 0 1 0 23.936 0 11.968 11.968 0 1 0-23.936 0Z" fill="#FFFFFF" /><path d="M343.232 318.976m-11.904 0a11.904 11.904 0 1 0 23.808 0 11.904 11.904 0 1 0-23.808 0Z" fill="#FFFFFF" /><path d="M379.008 318.976m-11.968 0a11.968 11.968 0 1 0 23.936 0 11.968 11.968 0 1 0-23.936 0Z" fill="#FFFFFF" /><path d="M641.024 433.024a16 16 0 0 1-16 16H335.36a16 16 0 0 1-16-16v-4.032a16 16 0 0 1 16-16h289.664a16 16 0 0 1 16 16v4.032zM548.032 502.976a16 16 0 0 1-16 16H335.36a16 16 0 0 1-16-16v-3.968a16 16 0 0 1 16-16h196.672a16 16 0 0 1 16 16v3.968zM600 572.992a16 16 0 0 1-16 16H335.36a16 16 0 0 1-16-16v-3.968a16 16 0 0 1 16-16h248.64a16 16 0 0 1 16 16v3.968z" fill="#DDDDDD" /><path d="M782.464 778.688m-144 0a144 144 0 1 0 288 0 144 144 0 1 0-288 0Z" fill="#FFFFFF" /><path d="M782.464 810.688c9.664 0 17.984-6.784 18.624-19.392l3.264-76.288a21.76 21.76 0 0 0-21.888-22.848 21.824 21.824 0 0 0-21.888 22.848l3.392 76.288c0.512 12.608 8.832 19.392 18.496 19.392z" fill="#FC5B5B" /><path d="M782.4 846.208m-18.944 0a18.944 18.944 0 1 0 37.888 0 18.944 18.944 0 1 0-37.888 0Z" fill="#FC5B5B" /></svg>