<svg class="svg-icon" style="width: 1em; height: 1em;vertical-align: middle;fill: currentColor;overflow: hidden;" viewBox="0 0 1024 1024" version="1.1" xmlns="http://www.w3.org/2000/svg"><path d="M521.152 511.936m-416 0a416 416 0 1 0 832 0 416 416 0 1 0-832 0Z" fill="#AEECFF" /><path d="M540.224 371.904h-47.232l6.272-42.88h35.968z" fill="#4B4A46" /><path d="M492.992 329.024h47.232v8.384h-47.232zM489.408 346.112h54.4v8.384h-54.4zM489.408 363.52h54.4v8.384h-54.4z" fill="#4B4A46" /><path d="M403.904 558.592c-32.512 108.8-102.272 196.16-141.888 189.696-88.32-14.4-78.336-166.72-62.464-264.32 15.936-97.536 59.136-169.856 151.04-154.88 126.208 20.544 81.664 134.848 53.312 229.504zM642.496 558.592c32.512 108.8 107.264 195.84 146.88 189.376 88.32-14.4 73.344-166.464 57.408-264-15.936-97.536-59.136-169.856-151.04-154.88-126.208 20.544-81.6 134.848-53.248 229.504z" fill="#FFFFFF" /><path d="M697.984 646.016s-59.008-32-173.696-32c-105.344 0-173.696 32-173.696 32l26.176-310.464s77.824 35.136 147.52 35.136c71.68 0 141.12-33.6 141.12-33.6l32.576 308.928z" fill="#FFFFFF" /><path d="M323.2 460.288m-83.968 0a83.968 83.968 0 1 0 167.936 0 83.968 83.968 0 1 0-167.936 0Z" fill="#FFFFFF" /><path d="M323.2 460.288m-69.376 0a69.376 69.376 0 1 0 138.752 0 69.376 69.376 0 1 0-138.752 0Z" fill="#665F57" /><path d="M323.2 460.288m-47.68 0a47.68 47.68 0 1 0 95.36 0 47.68 47.68 0 1 0-95.36 0Z" fill="#535353" /><path d="M323.2 460.288m-47.68 0a47.68 47.68 0 1 0 95.36 0 47.68 47.68 0 1 0-95.36 0Z" fill="#4A4A4A" /><path d="M323.2 460.288m-47.68 0a47.68 47.68 0 1 0 95.36 0 47.68 47.68 0 1 0-95.36 0Z" fill="#4A4A4A" /><path d="M323.2 460.288m-47.68 0a47.68 47.68 0 1 0 95.36 0 47.68 47.68 0 1 0-95.36 0Z" fill="#4A4A4A" /><path d="M524.288 425.984m-32.64 0a32.64 32.64 0 1 0 65.28 0 32.64 32.64 0 1 0-65.28 0Z" fill="#C0C5C8" /><path d="M724.928 460.288m-83.968 0a83.968 83.968 0 1 0 167.936 0 83.968 83.968 0 1 0-167.936 0Z" fill="#D5DDE0" /><path d="M724.928 413.952m-27.904 0a27.904 27.904 0 1 0 55.808 0 27.904 27.904 0 1 0-55.808 0Z" fill="#FFFFFF" /><path d="M724.928 413.952m-19.648 0a19.648 19.648 0 1 0 39.296 0 19.648 19.648 0 1 0-39.296 0Z" fill="#F15B5D" /><path d="M724.928 503.296m-27.904 0a27.904 27.904 0 1 0 55.808 0 27.904 27.904 0 1 0-55.808 0Z" fill="#FFFFFF" /><path d="M724.928 503.296m-19.648 0a19.648 19.648 0 1 0 39.296 0 19.648 19.648 0 1 0-39.296 0Z" fill="#F5C83B" /><path d="M769.536 458.624m-27.84 0a27.84 27.84 0 1 0 55.68 0 27.84 27.84 0 1 0-55.68 0Z" fill="#FFFFFF" /><path d="M769.6 458.624m-19.648 0a19.648 19.648 0 1 0 39.296 0 19.648 19.648 0 1 0-39.296 0Z" fill="#33BA78" /><path d="M680.32 458.624m-27.84 0a27.84 27.84 0 1 0 55.68 0 27.84 27.84 0 1 0-55.68 0Z" fill="#FFFFFF" /><path d="M680.256 458.624m-19.648 0a19.648 19.648 0 1 0 39.296 0 19.648 19.648 0 1 0-39.296 0Z" fill="#2A9ED9" /><path d="M601.984 547.84a19.2 19.2 0 0 1-19.2 19.2H467.2a19.2 19.2 0 0 1-19.2-19.2 19.2 19.2 0 0 1 19.2-19.2h115.648a19.2 19.2 0 0 1 19.136 19.2z" fill="#D5DFE1" /><path d="M518.272 547.84a12.8 12.8 0 0 1-12.8 12.8h-36.8a12.8 12.8 0 0 1-12.8-12.8c0-7.04 5.76-12.8 12.8-12.8h36.736a12.8 12.8 0 0 1 12.864 12.8z" fill="#4A4A4A" /><path d="M593.984 547.84a12.8 12.8 0 0 1-12.8 12.8h-36.736a12.8 12.8 0 0 1-12.8-12.8c0-7.04 5.76-12.8 12.8-12.8h36.736a12.8 12.8 0 0 1 12.8 12.8z" fill="#4A4A4A" /><path d="M916.544 382.464s68.416-49.216 66.432-70.336c-4.928-12.928-37.568-1.152-63.872 8.384-29.184 10.624-54.336 19.904-69.12 9.536-4.352-3.072-9.6-9.28-9.6-21.312 0-13.632 7.424-28.352 19.072-42.688A42.24 42.24 0 0 1 850.816 256c-5.696-9.024-7.488-17.6-5.504-25.6 3.52-13.76 17.024-21.376 30.08-28.736 10.624-6.016 21.632-12.16 23.168-19.776 1.088-5.056-1.664-11.968-8.192-20.48-41.408-54.592-114.112-74.368-114.816-74.56-78.016-16.768-138.752-6.208-180.736 31.552C512 192.768 527.616 349.504 527.808 351.04a9.6 9.6 0 0 1-8.512 10.56c-5.696 0.96-10.048-3.264-10.56-8.448-0.768-6.848-16.896-168 73.216-248.96 46.912-42.176 113.6-54.336 198.08-35.968 3.712 0.96 80.192 21.632 125.632 81.6 10.176 13.376 14.016 25.152 11.776 36.032-3.392 16.064-18.88 24.832-32.576 32.576-9.152 5.12-19.456 10.944-20.864 16.768-0.704 2.688 0.384 6.208 3.136 10.688a26.112 26.112 0 0 0 5.312 6.144C905.792 219.2 956.544 192 980.544 192c5.888 0 10.688 1.408 14.336 4.224a18.176 18.176 0 0 1 6.784 14.72c0 26.816-36.864 53.504-72.576 63.744-20.096 5.824-38.4 6.08-52.736 1.152-10.624 12.352-16.704 24-16.704 33.088 0 1.344 0.128 4.672 1.408 5.568 6.464 4.736 33.6-5.312 51.52-11.84 35.904-13.12 77.696-28.352 88.448 2.88 11.008 32-79.104 94.464-79.104 94.464l-5.376-17.536z m-24.384-122.88c12.736 1.28 25.92-1.856 31.552-3.456 33.536-9.664 58.624-31.872 58.624-45.312-2.56-1.28-23.04 2.688-53.952 21.888a271.68 271.68 0 0 0-36.224 26.88z" fill="#4B4A46" /></svg>