<svg class="svg-icon" style="width: 1em; height: 1em;vertical-align: middle;fill: currentColor;overflow: hidden;" viewBox="0 0 1024 1024" version="1.1" xmlns="http://www.w3.org/2000/svg"><path d="M533.312 512m-416 0a416 416 0 1 0 832 0 416 416 0 1 0-832 0Z" fill="#AEECFF" /><path d="M812.352 491.008H254.592l-41.28-62.272h640.064z" fill="#00B3F9" /><path d="M812.352 543.04H254.592l-41.28 43.2h640.064z" fill="#0080B2" /><path d="M254.592 543.04v-52.032l-41.28-62.272V586.24z" fill="#0098C8" /><path d="M812.352 543.04v-52.032l41.024-62.272V586.24z" fill="#009AC9" /><path d="M254.592 491.008h557.76v52.032H254.592z" fill="#22CBFF" /><path d="M300.608 512l-25.6 451.648c0 12.288 10.112 22.4 22.4 22.4h469.248c12.288 0 22.4-10.048 22.4-22.4L763.52 512H300.608z" fill="#FFFFFF" /><path d="M267.392 503.808h532.16v26.432H267.392z" fill="#000333" /><path d="M300.608 512l-25.6 451.648c0 12.288 10.112 22.4 22.4 22.4h469.248c12.288 0 22.4-10.048 22.4-22.4L763.52 512H300.608z" fill="#FFFFFF" /><path d="M320.832 512h-20.224l-1.216 21.376zM511.488 985.984l263.872-263.872-2.24-39.296-303.168 303.168z" fill="#FF6553" /><path d="M768.704 604.096l-381.888 381.888h41.6l342.528-342.464z" fill="#1EA0FF" /><path d="M677.696 985.984l106.56-106.56-2.24-39.296-145.92 145.856z" fill="#FF6553" /><path d="M777.536 761.408l-224.512 224.576h41.536l185.28-185.216zM362.304 512L296.896 577.408l-2.496 44.096L403.904 512z" fill="#1EA0FF" /><path d="M289.408 709.504L486.976 512H445.44l-153.536 153.536z" fill="#FF6553" /><path d="M786.432 918.72l-67.264 67.264h41.536l27.968-27.968zM528.512 512l-241.6 241.6-2.496 44.032L570.048 512z" fill="#1EA0FF" /><path d="M279.424 885.76L653.12 512h-41.536l-329.664 329.664zM345.344 985.984l421.184-421.184-2.304-39.296-460.416 460.48z" fill="#FF6553" /><path d="M694.656 512l-417.728 417.728-1.92 33.856c0 2.816 0.64 5.44 1.6 7.936L736.192 512h-41.536z" fill="#1EA0FF" /><path d="M307.584 953.984L330.752 512h402.432l23.168 441.984z" fill="#FFFFFF" /><path d="M499.072 851.328s12.288-25.856 49.152-31.296c36.864-5.44 50.624-39.04 50.624-39.04s12.672-21.76 50.432-22.016c23.616-0.192 42.432-37.824 42.432-37.824" fill="#FFFFFF" /><path d="M666.88 755.392a31.744 31.744 0 0 1-17.536 6.208c-35.84 0.256-47.744 19.904-48.192 20.672-0.384 1.152-14.656 34.752-52.544 40.384-34.752 5.184-46.976 29.632-47.168 29.824a2.688 2.688 0 0 1-3.456 1.216 2.56 2.56 0 0 1-1.216-3.456c0.512-1.216 13.184-27.2 51.136-32.768 35.008-5.12 48.448-37.12 48.576-37.504 0.704-1.344 14.08-23.36 52.736-23.616 21.888-0.064 39.936-36.032 40.128-36.352a2.688 2.688 0 0 1 3.584-1.152c1.28 0.64 1.792 2.176 1.216 3.52-0.704 1.152-11.456 22.336-27.264 33.024z" fill="#777777" /><path d="M509.44 866.496s12.288-25.792 49.152-31.232c36.864-5.44 50.624-39.04 50.624-39.04s12.672-21.696 50.432-22.016c23.616-0.192 42.368-37.76 42.368-37.76" fill="#FFFFFF" /><path d="M677.312 770.688a31.68 31.68 0 0 1-17.6 6.144c-35.84 0.256-47.808 19.904-48.192 20.672-0.32 1.216-14.656 34.816-52.48 40.384-34.816 5.248-47.04 29.632-47.232 29.824-0.576 1.344-2.176 1.792-3.456 1.28a2.688 2.688 0 0 1-1.28-3.52c0.448-1.216 13.248-27.2 51.136-32.768 35.008-5.12 48.448-37.12 48.576-37.568 0.768-1.216 14.08-23.232 52.736-23.552 21.888-0.064 40-36.032 40.192-36.288a2.56 2.56 0 0 1 3.52-1.216c1.344 0.704 1.792 2.176 1.216 3.584-0.64 1.088-11.392 22.272-27.136 33.024z" fill="#777777" /><path d="M519.872 881.792s12.288-25.792 49.152-31.232c36.864-5.504 50.624-39.104 50.624-39.104s12.672-21.632 50.432-22.016c23.616-0.128 42.368-37.76 42.368-37.76" fill="#FFFFFF" /><path d="M687.68 785.984a32.128 32.128 0 0 1-17.536 6.144c-35.84 0.256-47.744 19.904-48.256 20.608-0.32 1.216-14.656 34.88-52.48 40.384-34.752 5.248-46.976 29.632-47.168 29.824a2.56 2.56 0 0 1-3.456 1.28 2.624 2.624 0 0 1-1.216-3.456c0.512-1.216 13.184-27.264 51.136-32.832 35.008-5.056 48.384-37.184 48.512-37.504 0.768-1.28 14.08-23.296 52.736-23.552 21.952 0 40-36.032 40.192-36.352a2.816 2.816 0 0 1 3.584-1.216c1.28 0.704 1.792 2.24 1.152 3.584-0.704 1.088-11.392 22.336-27.2 33.088z" fill="#777777" /><path d="M530.304 897.152s12.288-25.856 49.152-31.232c36.8-5.504 50.56-39.104 50.56-39.104s12.672-21.696 50.432-22.016c23.68-0.128 42.432-37.824 42.432-37.824" fill="#FFFFFF" /><path d="M698.048 801.216a31.744 31.744 0 0 1-17.536 6.208c-35.84 0.256-47.744 19.904-48.192 20.672-0.384 1.152-14.656 34.752-52.544 40.384-34.752 5.184-46.976 29.632-47.168 29.824-0.64 1.28-2.112 1.856-3.456 1.28-1.28-0.704-1.856-2.304-1.216-3.584 0.512-1.152 13.184-27.2 51.136-32.768 35.008-5.056 48.384-37.184 48.576-37.504 0.768-1.28 14.08-23.296 52.736-23.552 21.888-0.064 40-36.032 40.128-36.416a2.752 2.752 0 0 1 3.584-1.152c1.28 0.64 1.792 2.24 1.216 3.52-0.704 1.216-11.456 22.4-27.264 33.088z" fill="#777777" /><path d="M609.344 807.424m-49.152 0a49.152 49.152 0 1 0 98.304 0 49.152 49.152 0 1 0-98.304 0Z" fill="#FFFFFF" /><path d="M639.168 851.328a53.12 53.12 0 0 1-59.776-87.808 53.12 53.12 0 0 1 59.776 87.808z m-55.296-81.344a45.312 45.312 0 0 0 50.88 74.816 45.44 45.44 0 0 0 12.032-62.848 45.44 45.44 0 0 0-62.912-11.968z" fill="#777777" /><path d="M395.2 905.344h-42.432L362.944 544h27.84zM423.552 905.344h-12.864l-4.096-262.656h8.448z" fill="#E2E2E2" /></svg>