<svg class="svg-icon" style="width: 1em;height: 1em;vertical-align: middle;fill: currentColor;overflow: hidden;" viewBox="0 0 1024 1024" version="1.1" xmlns="http://www.w3.org/2000/svg"><path d="M512 512m-512 0a512 512 0 1 0 1024 0 512 512 0 1 0-1024 0Z" fill="#FC8BA4" /><path d="M771.2 708c0 35.2-28.8 64-64 64h-400c-35.2 0-64-28.8-64-64v-400c0-35.2 28.8-64 64-64h400c35.2 0 64 28.8 64 64v400z" fill="#75B600" /><path d="M659.2 616c0 26.4-21.6 48-48 48h-208c-26.4 0-48-21.6-48-48V408c0-26.4 21.6-48 48-48h208c26.4 0 48 21.6 48 48v208z" fill="#415E6D" /><path d="M568 553.6c0 8.8-7.2 16-16 16H461.6c-8.8 0-16-7.2-16-16V462.4c0-8.8 7.2-16 16-16H552c8.8 0 16 7.2 16 16v91.2z" fill="#75B600" /><path d="M336 250.4c-4.8 0-8-3.2-8-8V184c0-4.8 3.2-8 8-8s8 3.2 8 8v58.4c0 4.8-3.2 8-8 8zM424 250.4c-4.8 0-8-3.2-8-8v-104c0-4.8 3.2-8 8-8s8 3.2 8 8v104c0 4.8-3.2 8-8 8zM512 250.4c-4.8 0-8-3.2-8-8V184c0-4.8 3.2-8 8-8s8 3.2 8 8v58.4c0 4.8-3.2 8-8 8zM592 250.4c-4.8 0-8-3.2-8-8V184c0-4.8 3.2-8 8-8s8 3.2 8 8v58.4c0 4.8-3.2 8-8 8zM680 250.4c-4.8 0-8-3.2-8-8V184c0-4.8 3.2-8 8-8s8 3.2 8 8v58.4c0 4.8-3.2 8-8 8zM336 840c-4.8 0-8-3.2-8-8v-56c0-4 3.2-8 8-8s8 3.2 8 8v56.8c0 4-3.2 7.2-8 7.2zM416 840c-4.8 0-8-3.2-8-8v-56c0-4 3.2-8 8-8s8 3.2 8 8v56.8c0 4-3.2 7.2-8 7.2zM504 840c-4.8 0-8-3.2-8-8v-56c0-4 3.2-8 8-8s8 3.2 8 8v56.8c0 4-3.2 7.2-8 7.2zM592 888c-4.8 0-8-3.2-8-8V776c0-4.8 3.2-8 8-8s8 3.2 8 8v104c0 4.8-3.2 8-8 8zM680 840c-4.8 0-8-3.2-8-8v-56c0-4 3.2-8 8-8s8 3.2 8 8v56.8c0 4-3.2 7.2-8 7.2zM832 344h-60c-4.8 0-8-3.2-8-8s4-8 8-8h60c4.8 0 8 3.2 8 8s-4 8-8 8zM876 424h-104c-4.8 0-8-3.2-8-8s3.2-8 8-8h104c4.8 0 8 3.2 8 8s-4 8-8 8zM832 512h-60c-4.8 0-8-3.2-8-8s4-8 8-8h60c4.8 0 8 3.2 8 8s-4 8-8 8zM832 600h-60c-4.8 0-8-3.2-8-8s4-8 8-8h60c4.8 0 8 3.2 8 8s-4 8-8 8zM832 688h-60c-4.8 0-8-3.2-8-8s4-8 8-8h60c4.8 0 8 3.2 8 8s-4 8-8 8zM240 344h-58.4c-4 0-8-3.2-8-8s3.2-8 8-8H240c4 0 8 3.2 8 8s-3.2 8-8 8zM239.2 432h-58.4c-4 0-8-3.2-8-8s3.2-8 8-8h58.4c4 0 8 3.2 8 8s-4 8-8 8zM240 512H136.8c-4 0-8-3.2-8-8s3.2-8 8-8H240c4 0 8 3.2 8 8s-3.2 8-8 8zM240 600h-58.4c-4 0-8-3.2-8-8s3.2-8 8-8H240c4 0 8 3.2 8 8s-3.2 8-8 8zM240 688h-58.4c-4 0-8-3.2-8-8s3.2-8 8-8H240c4 0 8 3.2 8 8s-3.2 8-8 8z" fill="#074370" /><path d="M578.4 296c0 8.8-7.2 16-16 16h-112c-8.8 0-16-7.2-16-16s7.2-16 16-16h112c8.8 0 16 7.2 16 16zM578.4 720c0 8.8-7.2 16-16 16h-112c-8.8 0-16-7.2-16-16s7.2-16 16-16h112c8.8 0 16 7.2 16 16zM712 576c-8.8 0-16-7.2-16-16V448c0-8.8 7.2-16 16-16s16 7.2 16 16v112c0 8.8-7.2 16-16 16zM296 580c-8.8 0-16-7.2-16-16v-112c0-8.8 7.2-16 16-16s16 7.2 16 16v112c0 8.8-7.2 16-16 16z" fill="#FFFFFF" /><path d="M576.8 416h-33.6c-4 0-7.2-3.2-7.2-8s3.2-8 7.2-8h33.6c4 0 7.2 3.2 7.2 8s-3.2 8-7.2 8zM503.2 416H400.8c-4.8 0-8.8-3.2-8.8-8s4-8 8.8-8H504c4.8 0 8.8 3.2 8.8 8s-4.8 8-9.6 8zM392 600c-4.8 0-8-3.2-8-8V512c0-4.8 3.2-8 8-8s8 3.2 8 8v80c0 4.8-3.2 8-8 8zM528 624h-72c-4.8 0-8-3.2-8-8s4-8 8-8h72c4.8 0 8 3.2 8 8s-4 8-8 8zM608 592c-4.8 0-8-3.2-8-8v-40c0-4.8 3.2-8 8-8s8 3.2 8 8v40c0 4.8-3.2 8-8 8zM608 520c-4.8 0-8-4-8-8.8v-30.4c0-4.8 3.2-8.8 8-8.8s8 4 8 8.8v30.4c0 4.8-3.2 8.8-8 8.8z" fill="#074370" /><path d="M420 105.6m-32 0a32 32 0 1 0 64 0 32 32 0 1 0-64 0Z" fill="#415E6D" /><path d="M592 912m-32 0a32 32 0 1 0 64 0 32 32 0 1 0-64 0Z" fill="#415E6D" /><path d="M102.4 504m-32 0a32 32 0 1 0 64 0 32 32 0 1 0-64 0Z" fill="#415E6D" /><path d="M909.6 420m-32 0a32 32 0 1 0 64 0 32 32 0 1 0-64 0Z" fill="#415E6D" /><path d="M704 784H304c-40 0-72-32-72-72V312c0-40 32-72 72-72h400c40 0 72 32 72 72v400c0 40-32 72-72 72zM304 256c-31.2 0-56 24.8-56 56v400c0 31.2 24.8 56 56 56h400c31.2 0 56-24.8 56-56V312c0-31.2-24.8-56-56-56H304z" fill="#074370" /><path d="M608 664H400c-31.2 0-56-24.8-56-56V400c0-31.2 24.8-56 56-56h208c31.2 0 56 24.8 56 56v208c0 31.2-24.8 56-56 56zM400 360c-22.4 0-40 17.6-40 40v208c0 22.4 17.6 40 40 40h208c22.4 0 40-17.6 40-40V400c0-22.4-17.6-40-40-40H400zM424 144c-22.4 0-40-17.6-40-40s17.6-40 40-40 40 17.6 40 40-17.6 40-40 40z m0-64c-13.6 0-24 10.4-24 24s10.4 24 24 24 24-10.4 24-24-10.4-24-24-24zM592 952c-22.4 0-40-17.6-40-40s17.6-40 40-40 40 17.6 40 40c0 21.6-17.6 40-40 40z m0-64c-13.6 0-24 10.4-24 24s10.4 24 24 24 24-10.4 24-24-10.4-24-24-24zM104 544c-22.4 0-40-17.6-40-40s17.6-40 40-40 40 17.6 40 40-17.6 40-40 40z m0-64c-13.6 0-24 10.4-24 24s10.4 24 24 24 24-10.4 24-24-10.4-24-24-24zM912 456c-22.4 0-40-17.6-40-40s17.6-40 40-40 40 17.6 40 40-17.6 40-40 40z m0-64c-13.6 0-24 10.4-24 24s10.4 24 24 24 24-10.4 24-24-10.4-24-24-24z" fill="#074370" /><path d="M736 696c-4.8 0-8-4-8-8v-64c0-4.8 3.2-8 8-8s8 4 8 8v64c0 4-3.2 8-8 8zM736 411.2c-4.8 0-8-3.2-8-8V328c0-22.4-17.6-40-40-40h-76.8c-4.8 0-8-3.2-8-8s3.2-8 8-8H688c31.2 0 56 24.8 56 56v75.2c0 4.8-4 8-8 8zM396 288h-69.6c-4.8 0-8-3.2-8-8s3.2-8 8-8h69.6c4.8 0 8 3.2 8 8s-3.2 8-8 8z" fill="#FFFFFF" /><path d="M552 576H464c-13.6 0-24-10.4-24-24V464c0-13.6 10.4-24 24-24h88c13.6 0 24 10.4 24 24v88c0 13.6-10.4 24-24 24zM464 456c-4.8 0-8 3.2-8 8v88c0 4.8 3.2 8 8 8h88c4.8 0 8-3.2 8-8V464c0-4.8-3.2-8-8-8H464z" fill="#074370" /><path d="M608 128c-17.6 0-32-14.4-32-32s14.4-32 32-32 32 14.4 32 32-14.4 32-32 32z m0-48.8c-9.6 0-16.8 8-16.8 16.8 0 9.6 8 16.8 16.8 16.8 9.6 0 16.8-8 16.8-16.8 0-9.6-7.2-16.8-16.8-16.8zM376 928c-17.6 0-32-14.4-32-32s14.4-32 32-32 32 14.4 32 32-14.4 32-32 32z m0-48.8c-9.6 0-16.8 8-16.8 16.8 0 9.6 8 16.8 16.8 16.8 9.6 0 16.8-8 16.8-16.8 0-9.6-7.2-16.8-16.8-16.8zM848.8 812.8c0-3.2-3.2-6.4-8-7.2l-15.2-2.4c-4-0.8-8.8-4.8-8.8-8.8l-2.4-15.2c-0.8-4-4-8-7.2-8s-6.4 3.2-7.2 8l-2.4 15.2c-0.8 4-4.8 8.8-8.8 8.8l-15.2 2.4c-4 0.8-8 4-8 7.2s3.2 6.4 8 7.2l15.2 2.4c4 0.8 8.8 4.8 8.8 8.8l2.4 15.2c0.8 4 4 8 7.2 8s6.4-3.2 6.4-8l2.4-16.8c0.8-4 4.8-8 8.8-8.8l14.4-0.8c5.6-1.6 9.6-4 9.6-7.2zM216.8 236.8c0-3.2-3.2-6.4-8-7.2l-15.2-2.4c-4-0.8-8.8-4.8-8.8-8.8l-2.4-15.2c-0.8-4-4-8-7.2-8s-6.4 3.2-7.2 8l-2.4 15.2c-0.8 4-4.8 8.8-8.8 8.8l-15.2 2.4c-4 0.8-8 4-8 7.2s3.2 6.4 8 7.2l15.2 2.4c4 0.8 8.8 4.8 8.8 8.8l2.4 15.2c0.8 4 4 8 7.2 8s6.4-3.2 6.4-8l2.4-16.8c0.8-4 4.8-8 8.8-8.8l14.4-0.8c5.6-1.6 9.6-4 9.6-7.2z" fill="#FFFFFF" /></svg>