<svg class="svg-icon" style="width: 1em;height: 1em;vertical-align: middle;fill: currentColor;overflow: hidden;" viewBox="0 0 1024 1024" version="1.1" xmlns="http://www.w3.org/2000/svg"><path d="M512 512m-512 0a512 512 0 1 0 1024 0 512 512 0 1 0-1024 0Z" fill="#FF4848" /><path d="M341.6 781.6c-11.2 13.6-32 16-46.4 5.6l-44.8-33.6c-14.4-10.4-17.6-31.2-8-45.6L470.4 368c9.6-14.4 29.6-17.6 43.2-7.2l83.2 62.4c14.4 10.4 16.8 30.4 5.6 44L341.6 781.6z" fill="#EAEAEA" /><path d="M597.6 422.4c-0.8 1.6-1.6 2.4-2.4 4L333.6 740.8c-11.2 13.6-32 16-46.4 5.6l-44.8-33.6c-0.8-0.8-1.6-0.8-1.6-1.6-7.2 14.4-3.2 32 9.6 41.6l44.8 33.6c14.4 10.4 35.2 8 46.4-5.6l260.8-314.4c11.2-13.6 9.6-32.8-4.8-44z" fill="#D4D6D6" /><path d="M317.6 800c-8.8 0-17.6-2.4-24.8-8L248 758.4c-17.6-12.8-21.6-38.4-9.6-56.8l226.4-338.4c7.2-10.4 19.2-16.8 32-16.8 8 0 16 2.4 23.2 8L602.4 416c8.8 6.4 13.6 16 15.2 26.4 1.6 10.4-1.6 20.8-8.8 28.8L349.6 784.8c-8 9.6-19.2 15.2-32 15.2z m179.2-437.6c-7.2 0-14.4 4-18.4 9.6L252 711.2c-7.2 11.2-4.8 26.4 5.6 34.4l44.8 33.6c4 3.2 9.6 4.8 15.2 4.8 8 0 15.2-3.2 20-8.8l259.2-313.6c4-4.8 5.6-11.2 4.8-16.8-0.8-6.4-4-11.2-8.8-15.2l-83.2-62.4c-3.2-3.2-8-4.8-12.8-4.8z" fill="#284049" /><path d="M560 544.8c-12 12.8-32.8 15.2-47.2 4.8l-96-72c-14.4-10.4-18.4-31.2-8.8-46.4l64-102.4c9.6-15.2 28-18.4 42.4-8l121.6 91.2c14.4 10.4 16 29.6 4 43.2L560 544.8z" fill="#EAEAEA" /><path d="M497.6 292l-72.8 116.8c11.2 27.2 29.6 52.8 55.2 72 32 24 69.6 35.2 107.2 33.6l83.2-92.8-172.8-129.6z" fill="#D4D6D6" /><path d="M533.6 564c-9.6 0-18.4-3.2-25.6-8l-96-72c-17.6-12.8-22.4-38.4-10.4-56.8l63.2-102.4c7.2-11.2 18.4-17.6 31.2-17.6 8 0 16 2.4 22.4 8L640 406.4c8.8 6.4 13.6 16 15.2 26.4 0.8 10.4-2.4 20.8-9.6 28.8L565.6 552c-8 7.2-19.2 12-32 12zM496 322.4c-7.2 0-13.6 4-17.6 10.4l-63.2 102.4c-7.2 11.2-4 28 6.4 36l96 72c4.8 3.2 10.4 4.8 16 4.8 8 0 15.2-3.2 20-8.8l80-90.4c4-4.8 6.4-10.4 5.6-16-0.8-5.6-4-11.2-8.8-15.2L509.6 327.2c-4-3.2-8.8-4.8-13.6-4.8z" fill="#284049" /><path d="M503.332309 458.027421a170.4 170.4 0 1 0 203.970976-273.021026 170.4 170.4 0 1 0-203.970976 273.021026Z" fill="#415E6D" /><path d="M741.6 351.2c-56 75.2-163.2 90.4-238.4 34.4-34.4-25.6-56-61.6-64-100.8-13.6 63.2 9.6 131.2 64 172.8 75.2 56 182.4 40.8 238.4-34.4 30.4-40.8 40-91.2 29.6-137.6-4.8 23.2-14.4 45.6-29.6 65.6z" fill="#2D4552" /><path d="M604 504c-39.2 0-76-12-107.2-36-38.4-28.8-63.2-71.2-70.4-118.4-7.2-47.2 4.8-95.2 33.6-133.6 34.4-45.6 87.2-72 144-72 39.2 0 76 12 107.2 36 38.4 28.8 63.2 71.2 70.4 118.4 7.2 47.2-4.8 95.2-33.6 133.6-34.4 45.6-87.2 72-144 72z m0-344C552 160 504 184 472.8 225.6c-26.4 35.2-36.8 78.4-31.2 121.6 6.4 43.2 28.8 81.6 64 108C534.4 476.8 568 488 604 488c52 0 100-24 131.2-65.6 26.4-35.2 36.8-78.4 31.2-121.6-6.4-43.2-28.8-81.6-64-108C673.6 171.2 640 160 604 160z" fill="#284049" /><path d="M754.4 440c-10.4 14.4-30.4 16.8-44.8 6.4l-256-191.2c-14.4-10.4-16.8-30.4-6.4-44.8 10.4-14.4 30.4-16.8 44.8-6.4l256 191.2c13.6 11.2 16.8 31.2 6.4 44.8z" fill="#EAEAEA" /><path d="M924.8 115.2c-2.4 0-4-0.8-5.6-2.4-3.2-3.2-3.2-8 0-11.2l51.2-51.2c3.2-3.2 8-3.2 11.2 0 3.2 3.2 3.2 8 0 11.2l-51.2 51.2c-1.6 1.6-3.2 2.4-5.6 2.4zM883.2 90.4h-1.6c-4-0.8-7.2-4.8-6.4-9.6l10.4-51.2c0.8-4 4.8-7.2 9.6-6.4 4 0.8 7.2 4.8 6.4 9.6l-10.4 51.2c-1.6 4-4.8 6.4-8 6.4zM948.8 156.8c-4 0-7.2-2.4-8-6.4-0.8-4 1.6-8.8 6.4-9.6l51.2-10.4c4-0.8 8.8 1.6 9.6 6.4 0.8 4-1.6 8.8-6.4 9.6l-51.2 10.4h-1.6z"  /><path d="M754.4 416c-10.4 14.4-30.4 16.8-44.8 6.4l-256-191.2c-4.8-4-8-8.8-10.4-13.6-5.6 12.8-1.6 28.8 10.4 37.6l256 191.2c14.4 10.4 34.4 8 44.8-6.4 7.2-9.6 8-20.8 4-31.2-0.8 2.4-2.4 4.8-4 7.2z" fill="#D4D6D6" /><path d="M728 464c-8.8 0-16.8-3.2-24-8L448 258.4c-8.8-6.4-14.4-16-15.2-27.2-1.6-11.2 0.8-21.6 7.2-30.4 7.2-10.4 19.2-16.8 32-16.8 8.8 0 16.8 3.2 24 8l256 197.6c17.6 13.6 21.6 39.2 8 57.6-7.2 10.4-19.2 16.8-32 16.8zM472 200.8c-7.2 0-14.4 4-19.2 9.6-4 5.6-5.6 12-4.8 18.4 0.8 6.4 4 12 9.6 16l256 197.6c10.4 8 25.6 5.6 33.6-4.8 8-11.2 5.6-26.4-4.8-34.4l-256-197.6c-4-3.2-9.6-4.8-14.4-4.8z" fill="#284049" /><path d="M372.8 764c-5.6 7.2-15.2 8.8-22.4 3.2l-96-72c-7.2-5.6-8.8-15.2-3.2-22.4 5.6-7.2 15.2-8.8 22.4-3.2l96 72c6.4 5.6 8 15.2 3.2 22.4z" fill="#415E6D" /><path d="M360 778.4c-5.6 0-10.4-1.6-14.4-4.8l-96-72c-10.4-8-12.8-23.2-4.8-33.6 7.2-10.4 23.2-12.8 33.6-4.8l96 72c10.4 8 12.8 23.2 4.8 33.6-4.8 6.4-12 9.6-19.2 9.6zM264 675.2c-2.4 0-4.8 0.8-6.4 3.2-2.4 3.2-1.6 8.8 1.6 11.2l96 72c3.2 2.4 8.8 1.6 11.2-1.6 2.4-3.2 1.6-8.8-1.6-11.2l-96-72c-1.6-1.6-3.2-1.6-4.8-1.6z" fill="#284049" /><path d="M722.4 412.8c-1.6 0-3.2-0.8-4.8-1.6L475.2 232.8c-3.2-2.4-4-8-1.6-11.2 2.4-3.2 8-4 11.2-1.6l242.4 178.4c3.2 2.4 4 8 1.6 11.2-1.6 2.4-4 3.2-6.4 3.2zM388.8 545.6c-1.6 0-3.2-0.8-4.8-1.6-4-2.4-4.8-7.2-2.4-11.2l17.6-25.6c2.4-4 7.2-4.8 11.2-2.4 4 2.4 4.8 7.2 2.4 11.2l-17.6 25.6c-1.6 3.2-4 4-6.4 4zM304 668c-1.6 0-3.2-0.8-4.8-1.6-3.2-2.4-4-7.2-1.6-10.4L360 564.8c2.4-4 7.2-4.8 11.2-2.4 4 2.4 4.8 7.2 2.4 11.2L311.2 664c-2.4 3.2-4.8 4-7.2 4z" fill="#FFFFFF" /><path d="M733.6 288c-3.2 0-6.4-2.4-7.2-5.6-5.6-16.8-14.4-31.2-24.8-44-3.2-3.2-2.4-8.8 0.8-11.2 3.2-3.2 8.8-2.4 11.2 0.8 12 13.6 20.8 30.4 27.2 48.8 1.6 4-0.8 8.8-4.8 10.4-0.8 0-1.6 0.8-2.4 0.8zM680 216.8c-1.6 0-3.2-0.8-4.8-1.6-31.2-21.6-72-28.8-106.4-20-4 0.8-8.8-1.6-9.6-5.6-0.8-4 1.6-8.8 5.6-9.6 39.2-10.4 85.6-1.6 120 21.6 4 2.4 4.8 7.2 2.4 11.2-2.4 2.4-4.8 4-7.2 4z" fill="#FFFFFF" opacity=".5" /><path d="M966.4 587.2c-49.6-30.4-135.2-32-226.4 52.8-36.8 34.4-71.2 71.2-104.8 106.4-101.6 108-188.8 201.6-295.2 177.6-33.6-7.2-57.6-23.2-69.6-47.2-23.2-44-1.6-102.4-1.6-103.2 1.6-4-0.8-8.8-4.8-10.4-4-1.6-8.8 0.8-10.4 4.8-0.8 2.4-24.8 65.6 2.4 116.8 15.2 28 41.6 46.4 80.8 55.2 12.8 2.4 24.8 4 36.8 4 98.4 0 180-87.2 273.6-186.4 32.8-35.2 67.2-72 104-106.4 84.8-78.4 162.4-77.6 207.2-50.4 40 24 57.6 69.6 46.4 118.4-8.8 35.2-31.2 60.8-68 76-4.8 7.2-9.6 15.2-15.2 22.4 41.6-12 84.8-38.4 98.4-94.4 2.4-9.6 4-18.4 4-27.2 0-48-19.2-86.4-57.6-108.8z" fill="#284049" /><path d="M331.2 248c0-3.2-3.2-6.4-8-7.2l-15.2-2.4c-4-0.8-8.8-4.8-8.8-8.8l-2.4-15.2c-0.8-4-4-8-7.2-8s-6.4 3.2-7.2 8l-2.4 15.2c-0.8 4-4.8 8.8-8.8 8.8l-15.2 2.4c-4 0.8-8 4-8 7.2s3.2 6.4 8 7.2l15.2 2.4c4 0.8 8.8 4.8 8.8 8.8l2.4 15.2c0.8 4 4 8 7.2 8s6.4-3.2 7.2-8l2.4-16.8c0.8-4 4.8-8 8.8-8.8l14.4-0.8c5.6-1.6 8.8-4 8.8-7.2zM946.4 464c0-3.2-3.2-6.4-8-7.2l-15.2-2.4c-4-0.8-8.8-4.8-8.8-8.8l-2.4-15.2c-0.8-4-4-8-7.2-8s-6.4 3.2-7.2 8l-2.4 15.2c-0.8 4-4.8 8.8-8.8 8.8l-15.2 2.4c-4 0.8-8 4-8 7.2s3.2 6.4 8 7.2l15.2 2.4c4 0.8 8.8 4.8 8.8 8.8l2.4 15.2c0.8 4 4 8 7.2 8s6.4-3.2 7.2-8l2.4-16.8c0.8-4 4.8-8 8.8-8.8l14.4-0.8c5.6-1.6 8.8-4.8 8.8-7.2zM529.6 730.4c0-3.2-3.2-6.4-8-7.2l-15.2-2.4c-4-0.8-8.8-4.8-8.8-8.8l-2.4-15.2c-0.8-4-4-8-7.2-8s-6.4 3.2-7.2 8l-1.6 15.2c-0.8 4-4.8 8.8-8.8 8.8l-15.2 2.4c-4 0.8-8 4-8 7.2s3.2 6.4 8 7.2l15.2 2.4c4 0.8 8.8 4.8 8.8 8.8l2.4 15.2c0.8 4 4 8 7.2 8s6.4-3.2 7.2-8l2.4-16.8c0.8-4 4.8-8 8.8-8.8l14.4-0.8c4-1.6 8-4 8-7.2zM804 816c-20 0-36-16-36-36s16-36 36-36 36 16 36 36-16 36-36 36z m0-55.2c-10.4 0-19.2 8.8-19.2 19.2 0 10.4 8.8 19.2 19.2 19.2 10.4 0 19.2-8.8 19.2-19.2 0-10.4-8.8-19.2-19.2-19.2zM192 520c-17.6 0-32-14.4-32-32s14.4-32 32-32 32 14.4 32 32-14.4 32-32 32z m0-48.8c-9.6 0-16.8 8-16.8 16.8 0 9.6 8 16.8 16.8 16.8 9.6 0 16.8-8 16.8-16.8 0-9.6-7.2-16.8-16.8-16.8z" fill="#FFFFFF" opacity=".5" /></svg>