<svg class="svg-icon" style="width: 1em; height: 1em;vertical-align: middle;fill: currentColor;overflow: hidden;" viewBox="0 0 1024 1024" version="1.1" xmlns="http://www.w3.org/2000/svg"><path d="M515.904 511.936m-416 0a416 416 0 1 0 832 0 416 416 0 1 0-832 0Z" fill="#AEECFF" /><path d="M953.152 711.168s-74.56 139.776-246.912 139.776c-116.544 0-291.904-139.776-291.904-139.776s175.296-139.776 291.904-139.776c171.072 0 246.912 139.776 246.912 139.776z" fill="#3CAB00" /><path d="M710.272 711.168m-97.92 0a97.92 97.92 0 1 0 195.84 0 97.92 97.92 0 1 0-195.84 0Z" fill="#FFFFFF" /><path d="M710.208 760.64a49.408 49.408 0 1 1 0.192-98.88 49.408 49.408 0 0 1-0.192 98.88z" fill="#666666" /><path d="M545.408 185.088c-8.576-7.36-16.064-12.096-26.88-12.096-10.432 0-17.664 4.288-26.048 10.944L170.368 462.272H251.52v341.12h149.76a22.208 22.208 0 1 0 0-44.48H296v-341.12l222.272-197.376L747.52 418.56l-0.128 118.784c0 12.224 9.984 19.328 22.272 19.328s22.144-5.376 22.144-20.16v-74.24h74.752L545.408 185.088z" fill="#FFFFFF" /></svg>