<svg class="svg-icon" style="width: 1em; height: 1em;vertical-align: middle;fill: currentColor;overflow: hidden;" viewBox="0 0 1024 1024" version="1.1" xmlns="http://www.w3.org/2000/svg"><path d="M832.2 127.9v766H192.7v-766h639.5m0-64H192.7c-35.3 0-64 28.7-64 64v766c0 35.3 28.7 64 64 64h639.5c35.3 0 64-28.7 64-64v-766c0-35.4-28.7-64-64-64z" fill="#A3D1C1" /><path d="M733.039 824.168v-32h97.9v32z" fill="#8C98A6" /><path d="M896.2 958.3H390.4v-176c0-35.3 28.7-64 64-64h441.8c35.3 0 64 28.7 64 64v112c0 35.4-28.7 64-64 64z" fill="#83B29E" /><path d="M509.5 771l48.6 112h0.8l48.4-112h27.4v142.8h-23.4v-98.4h-0.8l-42 98.4h-20.2l-42-98.4h-0.8v98.4h-23.4V771h27.4zM721.9 771c34.4 0 51.8 14.6 51.8 43.8 0 29.4-17.4 44.2-52.2 44.2h-35.4v54.8h-23.4V771h59.2z m-35.8 68h34c10.4 0 18-2 22.8-5.6 4.8-3.8 7.2-10 7.2-18.6 0-8.6-2.6-14.6-7.4-18.2-4.8-3.8-12.4-5.6-22.6-5.6h-34v48zM876.1 778.6c8.6 7 13 16.6 13 29 0 15.6-8 26-23.8 31.2 8.4 2.6 15 6.4 19.4 11.6 4.8 5.4 7.2 12.4 7.2 20.8 0 13.2-4.6 24-13.8 32.4-9.6 8.6-22.2 13-37.8 13-14.8 0-26.8-3.8-35.8-11.4-10-8.4-15.6-20.8-16.8-36.8h23.8c0.4 9.2 3.2 16.4 8.8 21.4 5 4.6 11.6 7 19.8 7 9 0 16.2-2.6 21.4-7.6 4.6-4.6 7-10.2 7-17 0-8.2-2.6-14.2-7.4-18-4.8-4-11.8-5.8-21-5.8h-10v-17.6h10c8.4 0 14.8-1.8 19.2-5.4 4.2-3.6 6.4-9 6.4-16s-2-12.2-5.8-15.8c-4.2-3.6-10.4-5.4-18.6-5.4-8.4 0-14.8 2-19.4 6.2-4.8 4.2-7.6 10.6-8.4 19.2h-23c1.2-14.4 6.4-25.6 16-33.6 9-8 20.6-11.8 34.6-11.8 14.4 0 26.2 3.4 35 10.4z" fill="#FFFFFF" /><path d="M430.7 577.9h-32V325.4c0-23.4 15.7-44.1 38.2-50.5l173.8-49.3c16-4.5 32.7-1.4 46 8.6 13.2 10 20.8 25.3 20.8 41.9v231.8h-32V276c0-6.5-3-12.4-8.1-16.3-5.2-3.9-11.7-5.1-17.9-3.4l-173.8 49.3c-8.8 2.5-14.9 10.6-14.9 19.7v252.6z" fill="#A3D1C1" /><path d="M301.781971 606.000419a43.2 67.7 72.101 1 0 128.846609-41.613838 43.2 67.7 72.101 1 0-128.846609 41.613838Z" fill="#A3D1C1" /><path d="M548.20265 536.221729a43.2 67.7 72.101 1 0 128.846609-41.613837 43.2 67.7 72.101 1 0-128.846609 41.613837Z" fill="#A3D1C1" /><path d="M414.86 375.07l248.359-66.486 8.275 30.912-248.359 66.487z" fill="#A3D1C1" /></svg>