<svg class="svg-icon" style="width: 1em; height: 1em;vertical-align: middle;fill: currentColor;overflow: hidden;" viewBox="0 0 1024 1024" version="1.1" xmlns="http://www.w3.org/2000/svg"><path d="M512 512m-416 0a416 416 0 1 0 832 0 416 416 0 1 0-832 0Z" fill="#AEECFF" /><path d="M128 671.936a416.64 416.64 0 0 0 81.536 125.056h604.928a414.976 414.976 0 0 0 81.472-124.992V412.992H128v258.944z" fill="#77543A" /><path d="M366.016 541.12h288v256h-288z" fill="#343434" /><path d="M128 446.016h768v76.032H128z" fill="#D8F2FF" /><path d="M179.136 412.992h16v108.992h-16zM830.016 412.992h16v108.992h-16z" fill="#343434" /><path d="M208 456h609.984V512H208z" fill="#595959" /><path d="M216 467.52h596.992v6.528H216zM216 494.528h596.992v6.528H216z" fill="#878787" /><path d="M348.032 456h12.992V512h-12.992z" fill="#FF3E3E" /><path d="M128 467.52h36.032v33.472H128zM860.032 467.52h36.032v33.472h-36.032z" fill="#343434" /><path d="M128 625.984h88V640H128zM128 652.032h88v14.016H128zM216 692.032H136.896l-5.76-14.016h84.864zM807.808 625.984h88V640h-88zM807.808 652.032h88v14.016h-88zM807.808 692.032h79.04l5.824-14.016h-84.864z" fill="#D8F2FF" /><path d="M250.688 653.12m-74.88 0a74.88 74.88 0 1 0 149.76 0 74.88 74.88 0 1 0-149.76 0Z" fill="#D8F2FF" /><path d="M250.688 653.12m-62.08 0a62.08 62.08 0 1 0 124.16 0 62.08 62.08 0 1 0-124.16 0Z" fill="#343434" /><path d="M774.464 653.12m-74.88 0a74.88 74.88 0 1 0 149.76 0 74.88 74.88 0 1 0-149.76 0Z" fill="#D8F2FF" /><path d="M774.464 653.12m-62.08 0a62.08 62.08 0 1 0 124.16 0 62.08 62.08 0 1 0-124.16 0Z" fill="#343434" /><path d="M376 550.144h269.376v39.04H376zM424 601.344h5.312v141.376h-5.312z" fill="#525252" /><path d="M376 742.656h269.376v45.312H376zM376 610.688h38.656v20.416h-38.656zM376 644.672h38.656v20.416h-38.656zM376 678.72h38.656v20.416h-38.656zM376 712.768h38.656v20.416h-38.656zM472.512 631.232h137.344v68.032H472.512z" fill="#525252" /><path d="M502.336 663.872m-9.6 0a9.6 9.6 0 1 0 19.2 0 9.6 9.6 0 1 0-19.2 0Z" fill="#343434" /><path d="M580.032 663.872m-9.6 0a9.6 9.6 0 1 0 19.2 0 9.6 9.6 0 1 0-19.2 0Z" fill="#343434" /><path d="M444.8 760.192h37.824v12.032H444.8zM493.504 760.192h37.824v12.032h-37.824zM542.272 760.192h37.888v12.032h-37.888zM590.976 760.192h37.824v12.032h-37.824z" fill="#343434" /><path d="M299.968 306.688h16.704v106.368h-16.704zM708.032 306.688h16.768v106.368h-16.768z" fill="#FFFFFF" /><path d="M316.672 306.752h391.296v36.032H316.672z" fill="#876045" /><path d="M316.672 314.688h399.68v6.4H316.672zM316.672 328.768h399.68v6.4H316.672z" fill="#FFFFFF" /><path d="M401.344 393.344h29.312v19.648h-29.312zM449.984 393.344h29.312v19.648h-29.312zM498.688 393.344h29.312v19.648h-29.312zM547.392 393.344h29.376v19.648h-29.376zM596.032 393.344h29.376v19.648h-29.376z" fill="#AFE4FF" /><path d="M841.152 224.256s-78.976-26.88-113.984 40.384c0 0-23.296 49.344 46.656 70.912 0 0 75.392 18.112 98.688-41.216 0 0 7.168-17.152 7.168-54.784v-91.52s0-10.752 19.776 0c0 0 39.488 23.36 47.552 33.216 0 0 11.712 6.272 17.984-2.688 0 0 15.232-10.752-17.088-65.536 0 0-37.696-50.24-97.856-52.032 0 0-16.128-4.48-16.128 15.296l7.232 147.968z" fill="#18CCFF" /></svg>