<svg class="svg-icon" style="width: 1em; height: 1em;vertical-align: middle;fill: currentColor;overflow: hidden;" viewBox="0 0 1024 1024" version="1.1" xmlns="http://www.w3.org/2000/svg"><path d="M521.152 511.936m-416 0a416 416 0 1 0 832 0 416 416 0 1 0-832 0Z" fill="#AEECFF" /><path d="M729.984 385.024l68.16-16-10.048 25.408 17.92 17.6-67.328 16.512z" fill="#FF505D" /><path d="M797.376 752.192a44.992 44.992 0 0 1-35.968 52.16l-368.128 68.096a44.992 44.992 0 0 1-52.224-35.968L255.552 374.08a44.928 44.928 0 0 1 35.904-52.224l368.128-68.096a44.928 44.928 0 0 1 52.224 35.904l85.568 462.528z" fill="#724822" /><path d="M706.496 254.528a44.928 44.928 0 0 0-52.224-35.904L286.144 286.72c-24.256 4.48-41.152 33.024-36.672 57.28l81.728 439.168 1.792 8.832 8.064 44.544c10.88 46.08 52.224 35.968 52.224 35.968-25.344 0.768-30.72-6.656-33.344-15.488-5.312-18.368 28.032-19.648 28.032-19.648l368.128-68.096a45.056 45.056 0 0 0 35.968-52.16l-85.568-462.592z" fill="#8E5B29" /><path d="M791.936 723.584a44.48 44.48 0 0 1-35.84 46.4l-368.128 68.096s-33.344 1.28-28.032 19.648c2.56 8.832 8 16.256 33.344 15.488l368.128-68.096a45.056 45.056 0 0 0 35.968-52.16l-5.44-29.376z" fill="#724821" /><path d="M389.888 866.816c-20.608 0-22.336-6.08-23.744-10.944 3.648-8.768 14.976-11.136 22.08-11.456l369.088-68.16a49.728 49.728 0 0 0 33.536-23.424l0.192 1.28a38.144 38.144 0 0 1-6.208 28.672 37.888 37.888 0 0 1-24.576 16l-368.128 68.096-2.24-0.064z" fill="#FFFFFF" /><path d="M654.272 218.624l-301.696 55.808a16.512 16.512 0 0 0-13.248 19.2L435.2 811.904c1.664 8.96 10.24 14.848 19.2 13.184l301.696-55.808a45.056 45.056 0 0 0 35.968-52.16l-85.568-462.528a44.928 44.928 0 0 0-52.224-35.968z" fill="#AA6D3C" /><path d="M392.448 788.544c1.92 10.368-4.992 20.416-15.36 22.4s-20.416-4.992-22.4-15.36L270.016 337.664a19.328 19.328 0 0 1 15.36-22.4 19.392 19.392 0 0 1 22.4 15.424l84.672 457.856z" fill="#9B6331" /><path d="M503.04 835.2l235.648-45.184-80 149.696z" fill="#FFFF70" /></svg>