<svg class="svg-icon" style="width: 1em;height: 1em;vertical-align: middle;fill: currentColor;overflow: hidden;" viewBox="0 0 1024 1024" version="1.1" xmlns="http://www.w3.org/2000/svg"><path d="M512 512m-512 0a512 512 0 1 0 1024 0 512 512 0 1 0-1024 0Z" fill="#3DB39E" /><path d="M712 968c0 26.4-21.6 48-48 48H288c-26.4 0-48-21.6-48-48V184c0-26.4 21.6-48 48-48h376c26.4 0 48 21.6 48 48v784z" fill="#D4D6D6" /><path d="M664 1024H288c-31.2 0-56-24.8-56-56V184c0-31.2 24.8-56 56-56h376c31.2 0 56 24.8 56 56v784c0 31.2-24.8 56-56 56zM288 144c-22.4 0-40 17.6-40 40v784c0 22.4 17.6 40 40 40h376c22.4 0 40-17.6 40-40V184c0-22.4-17.6-40-40-40H288z" fill="#46600E" /><path d="M760 968c0 26.4-21.6 48-48 48H336c-26.4 0-48-21.6-48-48V184c0-26.4 21.6-48 48-48h376c26.4 0 48 21.6 48 48v784z" fill="#EAEAEA" /><path d="M704 856c0 17.6-14.4 32-32 32H384c-17.6 0-32-14.4-32-32V264c0-17.6 14.4-32 32-32h288c17.6 0 32 14.4 32 32v592z" fill="#3DB39E" /><path d="M576 200H488c-4.8 0-8-3.2-8-8s3.2-8 8-8h88c4.8 0 8 3.2 8 8s-3.2 8-8 8z" fill="#ADADAD" /><path d="M712 1024H336c-31.2 0-56-24.8-56-56V184c0-31.2 24.8-56 56-56h376c31.2 0 56 24.8 56 56v784c0 31.2-24.8 56-56 56zM336 144c-22.4 0-40 17.6-40 40v784c0 22.4 17.6 40 40 40h376c22.4 0 40-17.6 40-40V184c0-22.4-17.6-40-40-40H336z" fill="#46600E" /><path d="M728 768c-4.8 0-8-2.4-8-5.6V653.6c0-3.2 3.2-5.6 8-5.6s8 2.4 8 5.6v108c0 4-3.2 6.4-8 6.4zM728 566.4c-4.8 0-8-3.2-8-8V227.2c0-37.6-11.2-44-44.8-44-4.8 0-8-3.2-8-8s3.2-8 8-8c38.4 0 60.8 9.6 60.8 60v332c0 4-3.2 7.2-8 7.2z" fill="#FFFFFF" /><path d="M856 672c-17.6 0-32-14.4-32-32s14.4-32 32-32 32 14.4 32 32c-0.8 17.6-15.2 32-32 32z m0-48.8c-9.6 0-16.8 8-16.8 16.8 0 9.6 7.2 16.8 16.8 16.8 9.6 0 16.8-8 16.8-16.8 0-9.6-8-16.8-16.8-16.8zM176 400c-17.6 0-32-14.4-32-32s14.4-32 32-32 32 14.4 32 32-14.4 32-32 32z m0-48.8c-9.6 0-16.8 8-16.8 16.8 0 9.6 8 16.8 16.8 16.8 9.6 0 16.8-8 16.8-16.8 0-9.6-7.2-16.8-16.8-16.8zM164.8 556.8c0-3.2-3.2-6.4-8-7.2l-15.2-2.4c-4-0.8-8.8-4.8-8.8-8.8l-2.4-15.2c-0.8-4-4-8-7.2-8s-6.4 3.2-7.2 8l-2.4 15.2c-0.8 4-4.8 8.8-8.8 8.8l-15.2 2.4c-4 0.8-8 4-8 7.2s3.2 6.4 8 7.2l15.2 2.4c4 0.8 8.8 4.8 8.8 8.8l2.4 15.2c0.8 4 4 8 7.2 8s6.4-3.2 7.2-8l2.4-16.8c0.8-4 4.8-8 8.8-8.8l14.4-0.8c4.8-0.8 8.8-4 8.8-7.2zM936.8 400.8c0-3.2-3.2-6.4-8-7.2l-15.2-2.4c-4-0.8-8.8-4.8-8.8-8.8l-2.4-15.2c-0.8-4-4-8-7.2-8s-6.4 3.2-7.2 8l-2.4 15.2c-0.8 4-4.8 8.8-8.8 8.8l-15.2 2.4c-4 0.8-8 4-8 7.2s3.2 6.4 8 7.2l15.2 2.4c4 0.8 8.8 4.8 8.8 8.8l2.4 15.2c0.8 4 4 8 7.2 8s6.4-3.2 7.2-8l2.4-16.8c0.8-4 4.8-8 8.8-8.8l14.4-0.8c4.8-0.8 8.8-4 8.8-7.2z" fill="#FFFFFF" opacity=".5" /><path d="M264 304c-4.8 0-8-4-8-8.8v-62.4c0-4.8 3.2-8.8 8-8.8s8 4 8 8.8v62.4c0 4.8-3.2 8.8-8 8.8zM264 432c-4.8 0-8-3.2-8-8V344c0-4.8 3.2-8 8-8s8 3.2 8 8v80c0 4.8-3.2 8-8 8zM544 984h-32c-31.2 0-56-16-56-36s24.8-36 56-36h32c31.2 0 56 16 56 36s-24.8 36-56 36z m-32-56c-23.2 0-40 10.4-40 20s16.8 20 40 20h32c23.2 0 40-10.4 40-20s-16.8-20-40-20h-32z" fill="#ADADAD" /><path d="M439.2 488c-8.8 0-15.2 7.2-15.2 16v64c0 8.8 7.2 16 15.2 16 8.8 0 16.8-7.2 16.8-16v-64c0-8.8-8-16-16.8-16zM607.2 488c-8.8 0-15.2 7.2-15.2 16v64c0 8.8 7.2 16 15.2 16 8.8 0 15.2-7.2 15.2-16v-64c0-8.8-6.4-16-15.2-16zM464 616h16v40c0 8.8 7.2 16 16 16s16-7.2 16-16v-40h24v40c0 8.8 7.2 16 16 16s16-7.2 16-16v-40h16V504H464v112zM559.2 443.2l8-13.6c0.8-1.6 0.8-4-1.6-5.6-1.6-0.8-4-0.8-5.6 1.6l-8 13.6c-8.8-4.8-19.2-8-29.6-8-10.4 0-20.8 3.2-29.6 8l-8-13.6c-0.8-1.6-3.2-2.4-5.6-1.6-1.6 0.8-2.4 3.2-1.6 5.6l8 13.6C472 454.4 464 476 464 496h120c0-20-9.6-41.6-24.8-52.8zM544 472c-4.8 0-8-3.2-8-8s3.2-8 8-8 8 3.2 8 8-3.2 8-8 8z m-40 0c-4.8 0-8-3.2-8-8s3.2-8 8-8 8 3.2 8 8-3.2 8-8 8zM644.8 739.2c-3.2-3.2-8-4-10.4-1.6l-88.8 82.4c-2.4 2.4-1.6 6.4 1.6 9.6 3.2 3.2 8 4 10.4 1.6l88.8-82.4c2.4-2.4 1.6-7.2-1.6-9.6zM524.8 739.2c-3.2-3.2-8-4-10.4-1.6l-56.8 50.4c-2.4 2.4-1.6 6.4 1.6 9.6 3.2 3.2 8 4 10.4 1.6l56.8-50.4c2.4-2.4 1.6-7.2-1.6-9.6zM588.8 283.2c-3.2-3.2-8-4-10.4-1.6L489.6 363.2c-2.4 2.4-1.6 6.4 1.6 9.6 3.2 3.2 8 4 10.4 1.6l88.8-82.4c2.4-1.6 1.6-6.4-1.6-8.8zM468.8 283.2c-3.2-3.2-8-4-10.4-1.6l-56.8 50.4c-2.4 2.4-1.6 6.4 1.6 9.6 3.2 3.2 8 4 10.4 1.6l56.8-50.4c2.4-2.4 1.6-7.2-1.6-9.6z" fill="#FFFFFF" /></svg>