<svg class="svg-icon" style="width: 1em; height: 1em;vertical-align: middle;fill: currentColor;overflow: hidden;" viewBox="0 0 1024 1024" version="1.1" xmlns="http://www.w3.org/2000/svg"><path d="M512 0c282.76736 0 512 229.23264 512 512s-229.23264 512-512 512S0 794.76736 0 512 229.23264 0 512 0z" fill="#3DB39E" /><path d="M985.63072 706.56H38.36928c76.5952 186.25536 259.75808 317.44 473.63072 317.44 213.88288 0 397.03552-131.18464 473.63072-317.44z" fill="#318F7E" /><path d="M235.52 215.04a30.72 30.72 0 0 0-30.72 30.72v563.2a30.72 30.72 0 0 0 30.72 30.72h669.82912C979.4048 750.87872 1024 636.66176 1024 512a509.4912 509.4912 0 0 0-95.04768-296.96H235.52z" fill="#EFC75E" /><path d="M997.05856 675.84H204.8v133.12a30.72 30.72 0 0 0 30.72 30.72h669.82912a511.1808 511.1808 0 0 0 91.70944-163.84z" fill="#F2D27E" /><path d="M1003.50976 655.36H204.8v20.48h792.25856c2.29376-6.76864 4.44416-13.58848 6.4512-20.48z" fill="#E5BF5A" /><path d="M327.68 839.68h81.92v10.24a30.72 30.72 0 0 1-30.72 30.72h-20.48a30.72 30.72 0 0 1-30.72-30.72v-10.24z" fill="#F4F0D3" /><path d="M491.52 194.56c-118.76352 0-215.04 96.27648-215.04 215.04s96.27648 215.04 215.04 215.04 215.04-96.27648 215.04-215.04-96.27648-215.04-215.04-215.04z" fill="#DCB756" /><path d="M604.16 532.48h245.76a51.2 51.2 0 0 1 51.2 51.2v92.16H552.96v-92.16a51.2 51.2 0 0 1 51.2-51.2z" fill="#C9A955" /><path d="M624.64 727.04a30.72 30.72 0 1 0 0 61.44 30.72 30.72 0 0 0 0-61.44z m102.4 0a30.72 30.72 0 1 0 0 61.44 30.72 30.72 0 0 0 0-61.44z m102.4 0a30.72 30.72 0 1 0 0 61.44 30.72 30.72 0 0 0 0-61.44z" fill="#F4F0D3" /><path d="M471.04 675.84h20.48v163.84h-20.48V675.84z" fill="#D0B46C" /><path d="M358.4 716.8a40.96 40.96 0 1 1 0 81.92 40.96 40.96 0 0 1 0-81.92z" fill="#F4F0D3" /><path d="M358.4 737.28a10.24 10.24 0 1 1 0 20.48 10.24 10.24 0 1 1 0-20.48z" fill="#E5E3CA" /><path d="M276.48 727.04a10.24 10.24 0 1 1 0 20.48 10.24 10.24 0 1 1 0-20.48z" fill="#E67458" /><path d="M849.92 552.96c16.93696 0 30.72 13.78304 30.72 30.72v71.68H573.44v-71.68c0-16.93696 13.78304-30.72 30.72-30.72h245.76m0-20.48H604.16a51.2 51.2 0 0 0-51.2 51.2v92.16h348.16v-92.16a51.2 51.2 0 0 0-51.2-51.2z" fill="#BA9C4D" /><path d="M471.04 604.16c-118.76352 0-215.04-96.27648-215.04-215.04s96.27648-215.04 215.04-215.04 215.04 96.27648 215.04 215.04-96.27648 215.04-215.04 215.04z" fill="#BE9E4B" /><path d="M471.04 225.28c-90.49088 0-163.84 73.35936-163.84 163.84 0 90.49088 73.34912 163.84 163.84 163.84s163.84-73.34912 163.84-163.84c0-90.48064-73.34912-163.84-163.84-163.84z m0 307.2c-79.17568 0-143.36-64.18432-143.36-143.36s64.18432-143.36 143.36-143.36 143.36 64.18432 143.36 143.36-64.18432 143.36-143.36 143.36z" fill="#AC8F43" /><path d="M471.04 256c-73.5232 0-133.12 59.5968-133.12 133.12s59.5968 133.12 133.12 133.12 133.12-59.5968 133.12-133.12-59.5968-133.12-133.12-133.12z" fill="#324D5B" /><path d="M474.08128 387.3792l-14.7968-192.77824-81.16224 35.13344-70.912 52.0192L467.99872 390.8608l14.7968 192.77824 80.81408-34.9184 71.26016-52.23424z" fill="#8B8F6F" /><path d="M464.01536 256.3584a132.84352 132.84352 0 0 0-104.79616 60.69248l108.77952 73.80992 10.05568 131.03104a132.85376 132.85376 0 0 0 104.79616-60.69248L474.08128 387.3792l-10.06592-131.0208z" fill="#416476" /><path d="M667.8528 532.48H604.16a51.2 51.2 0 0 0-51.2 51.2v31.93856A215.28576 215.28576 0 0 0 667.8528 532.48z" fill="#BC9E4F" /><path d="M333.80352 299.78624l16.9472 11.50976a143.03232 143.03232 0 0 1 112.4864-65.13664l-1.56672-20.39808a163.4816 163.4816 0 0 0-127.86688 74.02496z m274.47296 178.66752L591.32928 466.944a143.07328 143.07328 0 0 1-112.4864 65.14688l1.56672 20.39808a163.5328 163.5328 0 0 0 127.86688-74.0352z" fill="#BDA958" /><path d="M830.976 237.06624c-83.968 83.97824-83.968 220.13952 0 304.11776 50.42176 50.42176 119.63392 70.32832 185.07776 60.20096A513.2288 513.2288 0 0 0 1024 512a509.87008 509.87008 0 0 0-115.82464-324.29056 213.8624 213.8624 0 0 0-77.19936 49.3568z" fill="#BE9E4B" /><path d="M986.4192 390.0416l17.39776-20.29568a509.19424 509.19424 0 0 0-49.96096-116.31616l25.8048 134.76864-125.8496 146.78016 81.82784 32.45056 83.69152 12.9024c0.49152-3.67616 0.99328-7.36256 1.40288-11.06944L986.4192 390.0416z" fill="#8B8F6F" /><path d="M888.91392 294.99392c-51.98848 51.98848-51.98848 136.27392 0 188.2624 36.52608 36.52608 88.97536 47.27808 135.00416 32.47104l0.09216-3.71712a509.45024 509.45024 0 0 0-67.16416-253.37856 132.32128 132.32128 0 0 0-67.93216 36.36224z" fill="#324D5B" /><path d="M956.928 258.77504l-1.98656 0.3072L979.6608 388.1984l-85.54496 99.76832a132.82304 132.82304 0 0 0 117.02272 31.1808L986.4192 390.0416l17.39776-20.29568a508.45696 508.45696 0 0 0-46.88896-110.97088z" fill="#416476" /><path d="M881.67424 490.48576c-55.99232-55.99232-55.99232-146.74944 0-202.74176a142.52032 142.52032 0 0 1 69.85728-38.35904 510.53568 510.53568 0 0 0-11.50976-18.24768 162.93888 162.93888 0 0 0-72.82688 42.12736c-63.98976 63.98976-63.98976 167.71072 0 231.70048 42.1376 42.14784 101.49888 56.35072 155.41248 42.96704 0.50176-7.05536 0.82944-14.17216 1.03424-21.30944-48.72192 14.336-103.53664 2.29376-141.96736-36.13696z" fill="#AC8F43" /><path d="M1016.92416 549.33504l-3.85024-20.1216a143.104 143.104 0 0 1-125.61408-33.4848l-13.312 15.53408a163.54304 163.54304 0 0 0 142.77632 38.07232z" fill="#BDA958" /><path d="M753.2032 741.8368c2.83648 4.6592 4.5568 10.07616 4.5568 15.9232a30.72 30.72 0 0 1-30.72 30.72 30.5152 30.5152 0 0 1-15.9232-4.5568A30.6176 30.6176 0 0 0 737.28 798.72a30.64832 30.64832 0 1 0 15.9232-56.8832z m-102.4 0c2.83648 4.6592 4.5568 10.07616 4.5568 15.9232a30.72 30.72 0 0 1-30.72 30.72 30.5152 30.5152 0 0 1-15.9232-4.5568A30.6176 30.6176 0 0 0 634.88 798.72a30.64832 30.64832 0 1 0 15.9232-56.8832z m204.8 0c2.83648 4.6592 4.5568 10.07616 4.5568 15.9232a30.72 30.72 0 0 1-30.72 30.72 30.5152 30.5152 0 0 1-15.9232-4.5568A30.6176 30.6176 0 0 0 839.68 798.72a30.64832 30.64832 0 1 0 15.9232-56.8832z" fill="#D1B56D" /><path d="M763.99616 614.4h-74.09664c-36.03456 0-71.424-9.5744-102.5536-27.71968L389.12 471.04v20.48l198.22592 115.64032A203.56096 203.56096 0 0 0 689.89952 634.88h74.09664c36.1472 0 71.64928-9.60512 102.88128-27.81184l157.0304-91.60704L1024 512c0-5.64224-0.23552-11.22304-0.41984-16.82432l-156.70272 91.41248A204.26752 204.26752 0 0 1 763.99616 614.4z" fill="#324D5B" /><path d="M327.68 839.68v10.24c0 3.61472 0.73728 7.02464 1.88416 10.24h78.16192c1.13664-3.21536 1.87392-6.62528 1.87392-10.24v-10.24h-81.92z" fill="#C3C0A9" /><path d="M391.9872 734.4128c4.61824 6.62528 7.3728 14.65344 7.3728 23.3472a40.96 40.96 0 0 1-40.96 40.96 40.68352 40.68352 0 0 1-23.3472-7.3728A40.83712 40.83712 0 0 0 368.64 808.96a40.96 40.96 0 0 0 40.96-40.96c0-13.9264-6.98368-26.19392-17.6128-33.5872z" fill="#D1B56D" /><path d="M675.84 573.44h102.4a20.48 20.48 0 0 1 20.48 20.48v20.48a20.48 20.48 0 0 1-20.48 20.48H675.84a20.48 20.48 0 0 1-20.48-20.48v-20.48a20.48 20.48 0 0 1 20.48-20.48z m314.7264-243.47648l-14.30528 12.21632-138.99776-27.78112a163.45088 163.45088 0 0 1 29.93152-41.12384 162.53952 162.53952 0 0 1 72.82688-42.1376 516.7104 516.7104 0 0 0-31.83616-43.4176 213.8624 213.8624 0 0 0-77.19936 49.3568c-83.968 83.97824-83.968 220.13952 0 304.11776 50.42176 50.42176 119.63392 70.32832 185.07776 60.20096a510.57664 510.57664 0 0 0-25.4976-271.43168z m-123.37152 175.0016c-37.46816-37.46816-52.81792-88.55552-46.40768-137.32864l134.73792 48.9984 48.9984 134.73792c-48.77312 6.42048-99.86048-8.92928-137.32864-46.40768z" fill="#F4F0D3" /><path d="M997.51936 374.64064a20.48 20.48 0 1 0-28.95872 28.95872 20.48 20.48 0 0 0 28.95872-28.95872z m0 0a20.48 20.48 0 1 0-28.95872 28.95872 20.48 20.48 0 0 0 28.95872-28.95872z" fill="#DBD8BD" /><path d="M820.77696 367.64672l19.64032 7.13728c1.9456-19.5072 8.00768-38.63552 17.94048-56.1664l-21.10464-4.21888a163.5328 163.5328 0 0 0-16.47616 53.248z m176.5888 164.096l7.14752 19.64032a165.53984 165.53984 0 0 0 18.09408-3.5328c0.49152-7.09632 0.82944-14.2336 1.03424-21.41184-8.61184 2.57024-17.38752 4.41344-26.27584 5.30432z" fill="#DCD8BE" /><path d="M573.44 608.38912V583.68c0-16.93696 13.78304-30.72 30.72-30.72h47.31904a217.66144 217.66144 0 0 0 16.37376-20.48H604.16a51.2 51.2 0 0 0-51.2 51.2v31.93856c6.98368-2.07872 13.824-4.47488 20.48-7.22944z" fill="#AB9047" /><path d="M601.50784 594.13504a200.77568 200.77568 0 0 1-14.16192-7.45472L389.12 471.04v20.48l193.29024 112.76288c6.56384-3.072 12.92288-6.46144 19.0976-10.14784z" fill="#2F4754" /><path d="M471.04 174.08c-118.76352 0-215.04 96.27648-215.04 215.04s96.27648 215.04 215.04 215.04 215.04-96.27648 215.04-215.04-96.27648-215.04-215.04-215.04zM315.11552 439.35744A163.57376 163.57376 0 0 1 307.2 389.12c0-81.09056 58.9824-148.25472 136.33536-161.35168L433.0496 360.72448l-117.93408 78.63296zM471.04 552.96c-52.992 0-99.97312-25.27232-129.92512-64.28672L471.04 428.04224l129.92512 60.63104C571.01312 527.68768 524.032 552.96 471.04 552.96z m155.92448-113.60256l-117.93408-78.6432-10.496-132.95616C575.8976 240.86528 634.88 308.02944 634.88 389.12c0 17.54112-2.816 34.39616-7.91552 50.23744z" fill="#F4F0D3" /><path d="M471.04 368.64a20.48 20.48 0 1 0 0.01024 40.97024A20.48 20.48 0 0 0 471.04 368.64z m0 0a20.48 20.48 0 1 0 0.01024 40.97024A20.48 20.48 0 0 0 471.04 368.64z" fill="#DBD8BD" /><path d="M471.04 225.28c-14.36672 0-28.23168 2.03776-41.51296 5.50912 4.58752-1.19808 9.2672-2.21184 14.00832-3.0208l-1.65888 20.97152a144.03584 144.03584 0 0 1 58.30656 0l-1.64864-20.97152c4.73088 0.79872 9.37984 1.81248 13.95712 3.01056A163.2768 163.2768 0 0 0 471.04 225.28z m138.02496 202.14784a142.72512 142.72512 0 0 1-27.05408 52.39808l18.944 8.83712a163.06176 163.06176 0 0 0 25.99936-49.3056l-17.88928-11.9296z m-249.00608 52.39808a143.02208 143.02208 0 0 1-27.04384-52.39808l-17.89952 11.9296a163.1744 163.1744 0 0 0 25.99936 49.3056l18.944-8.83712z" fill="#DCD8BE" /></svg>