<svg class="svg-icon" style="width: 1em;height: 1em;vertical-align: middle;fill: currentColor;overflow: hidden;" viewBox="0 0 1024 1024" version="1.1" xmlns="http://www.w3.org/2000/svg"><path d="M512 512m-512 0a512 512 0 1 0 1024 0 512 512 0 1 0-1024 0Z" fill="#D3D1D1" /><path d="M480 64c0 6.4-2.4 12.8-7.2 16.8-4 4.8-10.4 7.2-16.8 7.2-13.6 0-24-10.4-24-24s10.4-24 24-24 24 11.2 24 24zM888 776c0 35.2-28.8 64-64 64H200c-35.2 0-64-28.8-64-64V376c0-35.2 28.8-64 64-64h624c35.2 0 64 28.8 64 64v400z" fill="#415E6D" /><path d="M788.8 387.2m-28.8 0a28.8 28.8 0 1 0 57.6 0 28.8 28.8 0 1 0-57.6 0Z" fill="#FFFFFF" /><path d="M888 472H136c-4.8 0-8-3.2-8-8s3.2-8 8-8h752c4.8 0 8 3.2 8 8s-3.2 8-8 8z" fill="#233E49" /><path d="M684 387.2m-28.8 0a28.8 28.8 0 1 0 57.6 0 28.8 28.8 0 1 0-57.6 0Z" fill="#FBD000" /><path d="M824 728c0 17.6-14.4 32-32 32H232c-17.6 0-32-14.4-32-32V552c0-17.6 14.4-32 32-32h560c17.6 0 32 14.4 32 32v176z" fill="#466F7C" /><path d="M788 424C768 424 752 408 752 388s16-36 36-36 36 16 36 36-16 36-36 36z m0-56c-11.2 0-20 8.8-20 20s8.8 20 20 20 20-8.8 20-20-8.8-20-20-20z" fill="#233E49" /><path d="M797.6 523.2h-560c-17.6 0-32 14.4-32 32v32c0-17.6 14.4-35.2 32-35.2h560c17.6 0 32 16.8 32 35.2v-32c0-18.4-13.6-32-32-32z" fill="#2D4552" /><path d="M608 408H224c-4.8 0-8-3.2-8-8s3.2-8 8-8h384c4.8 0 8 3.2 8 8s-3.2 8-8 8z" fill="#FFFFFF" /><path d="M792 776H232c-22.4 0-40-17.6-40-40V552c0-22.4 17.6-40 40-40h560c22.4 0 40 17.6 40 40v184c0 22.4-17.6 40-40 40zM232 528c-13.6 0-24 10.4-24 24v184c0 13.6 10.4 24 24 24h560c13.6 0 24-10.4 24-24V552c0-13.6-10.4-24-24-24H232z" fill="#233E49" /><path d="M272 776c-4.8 0-8-3.2-8-8V528c0-4.8 3.2-8 8-8s8 3.2 8 8v240c0 4.8-3.2 8-8 8z" fill="#233E49" /><path d="M824 592H208c-4.8 0-8-3.2-8-8s3.2-8 8-8h616c4.8 0 8 3.2 8 8s-3.2 8-8 8zM824 656H208c-4.8 0-8-3.2-8-8s3.2-8 8-8h616c4.8 0 8 3.2 8 8s-3.2 8-8 8zM824 720H208c-4.8 0-8-3.2-8-8s3.2-8 8-8h616c4.8 0 8 3.2 8 8s-3.2 8-8 8z" fill="#233E49" /><path d="M344 776c-4.8 0-8-3.2-8-8V528c0-4.8 3.2-8 8-8s8 3.2 8 8v240c0 4.8-3.2 8-8 8zM408 776c-4.8 0-8-3.2-8-8V528c0-4.8 3.2-8 8-8s8 3.2 8 8v240c0 4.8-3.2 8-8 8zM480 776c-4.8 0-8-3.2-8-8V528c0-4.8 3.2-8 8-8s8 3.2 8 8v240c0 4.8-3.2 8-8 8zM552 776c-4.8 0-8-3.2-8-8V528c0-4.8 3.2-8 8-8s8 3.2 8 8v240c0 4.8-3.2 8-8 8zM624 776c-4.8 0-8-3.2-8-8V528c0-4.8 3.2-8 8-8s8 3.2 8 8v240c0 4.8-3.2 8-8 8zM688 776c-4.8 0-8-3.2-8-8V528c0-4.8 3.2-8 8-8s8 3.2 8 8v240c0 4.8-3.2 8-8 8zM760 776c-4.8 0-8-3.2-8-8V528c0-4.8 3.2-8 8-8s8 3.2 8 8v240c0 4.8-3.2 8-8 8zM456 96c-17.6 0-32-14.4-32-32s14.4-32 32-32 32 14.4 32 32c0 8.8-3.2 16.8-9.6 22.4-5.6 6.4-13.6 9.6-22.4 9.6z m0-48c-8.8 0-16 7.2-16 16s7.2 16 16 16c4 0 8-1.6 11.2-4.8 3.2-3.2 4.8-7.2 4.8-11.2 0-8.8-7.2-16-16-16z" fill="#233E49" /><path d="M788 317.6L470.4 89.6c-4-2.4-4.8-7.2-1.6-11.2 2.4-4 7.2-4.8 11.2-1.6l320.8 230.4-12.8 10.4z" fill="#233E49" /><path d="M256 432c-4.8 0-8-3.2-8-8v-56c0-4.8 3.2-8 8-8s8 3.2 8 8v56c0 4.8-3.2 8-8 8zM584 432c-4.8 0-8-3.2-8-8v-56c0-4.8 3.2-8 8-8s8 3.2 8 8v56c0 4.8-3.2 8-8 8zM304 424c-4.8 0-8-3.2-8-8v-32c0-4.8 3.2-8 8-8s8 3.2 8 8v32c0 4.8-3.2 8-8 8z" fill="#FFFFFF" /><path d="M352 424c-4.8 0-8-3.2-8-8v-32c0-4.8 3.2-8 8-8s8 3.2 8 8v32c0 4.8-3.2 8-8 8z" fill="#FF4848" /><path d="M416 424c-4.8 0-8-3.2-8-8v-32c0-4.8 3.2-8 8-8s8 3.2 8 8v32c0 4.8-3.2 8-8 8zM480 424c-4.8 0-8-3.2-8-8v-32c0-4.8 3.2-8 8-8s8 3.2 8 8v32c0 4.8-3.2 8-8 8zM528 424c-4.8 0-8-3.2-8-8v-32c0-4.8 3.2-8 8-8s8 3.2 8 8v32c0 4.8-3.2 8-8 8z" fill="#FFFFFF" /><path d="M977.6 848H48.8c-4.8 0-8-3.2-8-8s3.2-8 8-8h928.8c4.8 0 8 3.2 8 8s-3.2 8-8 8z" fill="#233E49" /><path d="M824 848H200c-40 0-72-32-72-72V376c0-40 32-72 72-72h624c40 0 72 32 72 72v400c0 40-32 72-72 72zM200 320c-31.2 0-56 24.8-56 56v400c0 31.2 24.8 56 56 56h624c31.2 0 56-24.8 56-56V376c0-31.2-24.8-56-56-56H200z" fill="#233E49" /><path d="M684 424C664 424 648 408 648 388s16-36 36-36 36 16 36 36-16 36-36 36z m0-56c-11.2 0-20 8.8-20 20s8.8 20 20 20 20-8.8 20-20-8.8-20-20-20zM917.6 128c-2.4 0-4-0.8-5.6-2.4-3.2-3.2-3.2-8 0-11.2l51.2-51.2c3.2-3.2 8-3.2 11.2 0 3.2 3.2 3.2 8 0 11.2l-51.2 51.2c-1.6 1.6-4 2.4-5.6 2.4zM875.2 104h-1.6c-4-0.8-7.2-4.8-6.4-9.6l10.4-51.2c0.8-4 4.8-7.2 9.6-6.4 4 0.8 7.2 4.8 6.4 9.6l-10.4 51.2c-0.8 3.2-4 6.4-8 6.4zM941.6 170.4c-4 0-7.2-2.4-8-6.4-0.8-4 1.6-8.8 6.4-9.6l51.2-10.4c4-0.8 8.8 1.6 9.6 6.4 0.8 4-1.6 8.8-6.4 9.6l-51.2 10.4c-0.8-0.8-0.8 0-1.6 0z" fill="#233E49" /><path d="M320 224c-17.6 0-32-14.4-32-32s14.4-32 32-32 32 14.4 32 32-14.4 32-32 32z m0-48.8c-9.6 0-16.8 8-16.8 16.8 0 9.6 8 16.8 16.8 16.8 9.6 0 16.8-8 16.8-16.8 0-9.6-7.2-16.8-16.8-16.8zM817.6 181.6c0-3.2-3.2-6.4-8-7.2l-15.2-2.4c-4-0.8-8.8-4.8-8.8-8.8l-2.4-15.2c-0.8-4-4-8-7.2-8s-6.4 3.2-7.2 8l-2.4 15.2c-0.8 4-4.8 8.8-8.8 8.8l-15.2 2.4c-4 0.8-8 4-8 7.2s3.2 6.4 8 7.2l15.2 2.4c4 0.8 8.8 4.8 8.8 8.8l2.4 15.2c0.8 4 4 8 7.2 8s6.4-3.2 7.2-8l2.4-16.8c0.8-4 4.8-8 8.8-8.8l14.4-0.8c4.8-0.8 8.8-4 8.8-7.2zM564 237.6c0-3.2-3.2-6.4-8-7.2l-15.2-2.4c-4-0.8-8.8-4.8-8.8-8.8l-2.4-15.2c-0.8-4-4-8-7.2-8s-6.4 3.2-7.2 8l-2.4 15.2c-0.8 4-4.8 8.8-8.8 8.8l-15.2 2.4c-4 0.8-8 4-8 7.2s3.2 6.4 8 7.2l15.2 2.4c4 0.8 8.8 4.8 8.8 8.8l2.4 15.2c0.8 4 4 8 7.2 8s6.4-3.2 7.2-8l2.4-16.8c0.8-4 4.8-8 8.8-8.8l14.4-0.8c4.8-0.8 8.8-4 8.8-7.2zM103.2 516.8c0-3.2-3.2-6.4-8-7.2l-15.2-2.4c-4-0.8-8.8-4.8-8.8-8.8l-2.4-15.2c-0.8-4-4-8-7.2-8s-6.4 3.2-7.2 8l-2.4 15.2c-0.8 4-4.8 8.8-8.8 8.8l-15.2 2.4c-4 0.8-8 4-8 7.2s3.2 6.4 8 7.2l15.2 2.4c4 0.8 8.8 4.8 8.8 8.8l2.4 15.2c0.8 4 4 8 7.2 8s6.4-3.2 7.2-8l2.4-16.8c0.8-4 4.8-8 8.8-8.8l14.4-0.8c5.6-0.8 8.8-4 8.8-7.2zM848 496H760c-4.8 0-8-3.2-8-8s3.2-8 8-8h88c4.8 0 8 3.2 8 8s-3.2 8-8 8zM688 496H256c-4.8 0-8-3.2-8-8s3.2-8 8-8h432c4.8 0 8 3.2 8 8s-3.2 8-8 8zM776 816H584c-4 0-8-3.2-8-8s3.2-8 8-8h192c4 0 8 3.2 8 8s-3.2 8-8 8z" fill="#FFFFFF" opacity=".5" /></svg>