<svg class="svg-icon" style="width: 1em;height: 1em;vertical-align: middle;fill: currentColor;overflow: hidden;" viewBox="0 0 1024 1024" version="1.1" xmlns="http://www.w3.org/2000/svg"><path d="M512 57.677643C226.27383 57.677643 57.677643 226.27383 57.677643 512s168.596187 454.322357 454.322357 454.322357 454.322357-168.596187 454.322357-454.322357S797.72617 57.677643 512 57.677643z" fill="#E29963" /><path d="M648.935598 201.772367c-1.064818-0.443674-1.863432-1.331023-2.218371-2.39584l-0.709879-1.774697c-3.371924 0-7.364991 0.354939-10.82565 1.685962-5.50156 2.040901-10.293241 6.832582-12.689081 9.405893 0.088735 1.331023-0.17747 2.662045-0.709879 3.904332-0.887348 2.040901-2.662045 3.638128-4.702946 4.525477l-177.469671 67.615944c0.354939 0.266205 0.709879 0.532409 1.064818 0.887349 1.597227 1.597227 2.484575 3.726863 2.484576 6.033969v11.712998c0 2.218371-0.887348 4.436742-2.484576 6.033969-1.597227 1.597227-3.726863 2.484575-6.033968 2.484575h-73.20624c-2.218371 0-4.436742-0.887348-6.033968-2.484575-1.597227-1.597227-2.484575-3.726863-2.484576-6.033969v-11.712998c0-2.218371 0.887348-4.436742 2.484576-6.033969 1.597227-1.597227 3.726863-2.484575 6.033968-2.484576h10.470711c0.088735 0 0.17747-0.088735 0.266204-0.088734l235.679723-89.799654c2.129636-0.798614 4.436742-0.709879 6.566378 0.17747 0.976083 0.443674 1.774697 0.976083 2.484575 1.774697 3.371924 0.266205 10.470711 0.621144 16.061006-1.508493 3.460659-1.331023 6.655113-3.638128 9.228422-5.856499l-0.887348-2.307105c-0.443674-1.064818-0.354939-2.218371 0.088735-3.283189 0.443674-1.064818 1.331023-1.863432 2.39584-2.218371l4.702947-1.774697c1.064818-0.443674 2.218371-0.354939 3.283189 0.088735s1.863432 1.331023 2.218371 2.39584l5.32409 13.93137c0.443674 1.064818 0.354939 2.218371-0.088735 3.283188-0.443674 1.064818-1.331023 1.863432-2.395841 2.218371l-4.702946 1.774697c-0.976083 0.354939-2.218371 0.354939-3.194454-0.17747z" fill="#666666" /><path d="M277.580312 711.997671c0 23.603466 19.07799 42.681456 42.681456 42.681456h383.511958c23.514731 0 42.681456-19.07799 42.681456-42.681456v-366.47487c0-11.269324-4.525477-22.183709-12.511612-30.169844s-18.811785-12.511612-30.169844-12.511612h-383.511958c-11.269324 0-22.183709 4.525477-30.169844 12.511612s-12.511612 18.90052-12.511612 30.169844v366.47487z" fill="#E9C88B" /><path d="M703.773726 767.456943h-383.511958c-30.613518 0-55.459272-24.845754-55.459272-55.459272v-366.47487c0-14.818718 5.767764-28.750087 16.238475-39.220798 10.470711-10.470711 24.40208-16.238475 39.220797-16.238474h383.511958c14.818718 0 28.750087 5.767764 39.220797 16.238474s16.238475 24.40208 16.238475 39.220798v366.47487c0 30.613518-24.845754 55.459272-55.459272 55.459272z m-383.511958-451.749047c-7.986135 0-15.439861 3.105719-21.118891 8.784749-5.679029 5.679029-8.784749 13.132756-8.784749 21.118891v366.47487c0 16.504679 13.39896 29.814905 29.814905 29.814904h383.511958c16.415945 0 29.814905-13.39896 29.814905-29.814904v-366.47487c0-7.986135-3.105719-15.439861-8.784749-21.118891-5.679029-5.679029-13.132756-8.784749-21.118891-8.784749h-383.334488z" fill="#FFFFFF" /><path d="M352.947244 503.224125c0 6.743847 2.662045 13.310225 7.453727 18.101906 4.791681 4.791681 11.269324 7.453726 18.101906 7.453726h266.914385c6.743847 0 13.310225-2.662045 18.101906-7.453726 4.791681-4.791681 7.453726-11.269324 7.453726-18.101906v-119.703293c0-6.743847-2.662045-13.310225-7.453726-18.101907-4.791681-4.791681-11.269324-7.453726-18.013171-7.453726h-267.00312c-6.743847 0-13.310225 2.662045-18.101906 7.453726s-7.453726 11.358059-7.453727 18.101907v119.703293z" fill="#999999" /><path d="M645.505997 533.216499h-267.00312c-7.986135 0-15.528596-3.105719-21.207626-8.784749-5.679029-5.679029-8.784749-13.22149-8.784748-21.207625v-119.703293c0-7.986135 3.105719-15.528596 8.784748-21.207626s13.22149-8.784749 21.207626-8.784748h266.914385c7.986135 0 15.528596 3.105719 21.207625 8.784748 5.679029 5.679029 8.784749 13.22149 8.784749 21.207626v119.614558c0 7.986135-3.105719 15.528596-8.784749 21.207626-5.590295 5.767764-13.132756 8.873484-21.11889 8.873483z m-267.00312-170.814558c-5.590295 0-10.914385 2.218371-14.907452 6.211439s-6.211438 9.317158-6.211439 14.907452v119.614558c0 5.679029 2.218371 11.00312 6.211439 14.996187 3.993068 3.993068 9.317158 6.211438 14.996187 6.211439h266.914385c5.679029 0 11.00312-2.218371 14.996187-6.211439 3.993068-3.993068 6.211438-9.317158 6.211438-14.996187v-119.614558c0-5.679029-2.218371-11.00312-6.211438-14.996187s-9.405893-6.122704-14.996187-6.122704h-267.00312z" fill="#666666" /><path d="M390.570815 464.713206h12.777816v-42.592721h-12.777816v42.592721z m115.000346 0h12.777816v-42.592721h-12.777816v42.592721z m127.866898 0h-12.777816v-42.592721h12.777816v42.592721z m-211.810052 0h8.518544v-21.29636h-8.518544v21.29636z m28.572617 0h8.518544v-21.29636h-8.518544v21.29636z m28.572617 0h8.518544v-21.29636h-8.518544v21.29636z m57.943847 0h8.518545v-21.29636h-8.518545v21.29636z m28.572617 0h8.518545v-21.29636h-8.518545v21.29636z m28.572617 0h8.518545v-21.29636h-8.518545v21.29636z" fill="#FFFFFF" /><path d="M438.700589 524.50895h6.832583v-147.832236h-6.832583v147.832236z" opacity=".2" /><path d="M433.287764 524.50895h6.832583v-141.443328h-6.832583v141.443328z" fill="#CF6A69" /><path d="M357.083175 422.737192v58.121318l74.803466-118.815945h-36.470017l-38.333449 60.694627zM418.310211 524.516049h63.800347l88.734835-162.650954h-59.807279l-92.727903 162.650954zM539.255792 524.693518h20.497747l88.646101-162.650953h-16.50468l-92.639168 162.650953z" fill="#FFFFFF" opacity=".2" /><path d="M373.342946 674.606586c0-2.395841 1.863432-4.259272 4.259272-4.259272 2.395841 0 4.259272 1.952166 4.259272 4.259272 0 2.395841-1.863432 4.259272-4.259272 4.259272-2.395841 0-4.259272-1.863432-4.259272-4.259272z m49.247834 0c0-2.395841 1.952166-4.259272 4.259272-4.259272 2.395841 0 4.259272 1.952166 4.259272 4.259272 0 2.395841-1.952166 4.259272-4.259272 4.259272-2.307106 0-4.259272-1.863432-4.259272-4.259272z" fill="#86BB73" /><path d="M402.181768 604.328596c-17.835702 0-32.29948 14.463778-32.29948 32.388215 0 17.835702 14.463778 32.388215 32.29948 32.388215 17.835702 0 32.388215-14.463778 32.388215-32.388215s-14.463778-32.388215-32.388215-32.388215z" fill="#E29963" /><path d="M402.181768 670.347314c-18.545581 0-33.630503-15.084922-33.630503-33.630503s15.084922-33.630503 33.630503-33.630503 33.630503 15.084922 33.630502 33.630503-15.084922 33.630503-33.630502 33.630503z m0-64.77643c-17.125823 0-31.057192 13.931369-31.057193 31.057192s13.931369 31.057192 31.057193 31.057193 31.057192-13.931369 31.057192-31.057193c0.088735-17.037088-13.931369-31.057192-31.057192-31.057192z" fill="#666666" /><path d="M382.393899 618.171231c-0.443674 0.443674-0.621144 0.976083-0.621143 1.508492s0.266205 1.064818 0.621143 1.508492l6.743848 6.743847c0.443674 0.443674 0.976083 0.621144 1.508492 0.621144s1.064818-0.266205 1.508492-0.621144c0.443674-0.443674 0.621144-0.976083 0.621144-1.508492s-0.266205-1.064818-0.621144-1.508492l-6.743847-6.743847c-0.443674-0.443674-0.976083-0.621144-1.508492-0.621144s-1.064818 0.266205-1.508493 0.621144z" fill="#666666" /><path d="M434.037574 670.436049l-3.016985-3.016985c7.719931-7.719931 11.890468-17.924437 11.890468-28.750087 0-22.449913-18.279376-40.729289-40.729289-40.729289-22.361179 0-40.640555 18.279376-40.640555 40.640555 0 10.82565 4.259272 21.118891 11.890468 28.750086l-3.016984 3.016985c-8.429809-8.429809-13.132756-19.699133-13.132756-31.767071 0-24.757019 20.142808-44.988562 44.988562-44.988562 24.757019 0 44.899827 20.142808 44.899826 44.988562 0 12.067938-4.702946 23.337262-13.132755 31.855806z" fill="#666666" /><path d="M609.419314 582.588562c0 0.887348 0.354939 1.774697 0.976083 2.39584s1.508492 0.976083 2.39584 0.976083c0.887348 0 1.774697-0.354939 2.395841-0.976083s0.976083-1.508492 0.976083-2.39584v-7.010052c0-0.887348-0.354939-1.774697-0.976083-2.395841s-1.419757-0.976083-2.395841-0.976083c-0.887348 0-1.774697 0.354939-2.39584 0.976083s-0.976083 1.508492-0.976083 2.395841v7.010052z" fill="#CF6A69" /><path d="M612.791237 683.746274c-29.72617 0-53.862045-24.135875-53.862045-53.862045 0-14.375043 5.590295-27.951473 15.794801-38.155979 5.057886-5.057886 10.914385-8.962218 17.480763-11.712999 3.283189-1.331023 6.655113-2.395841 10.115771-3.105719l0.798613 4.170537c-3.194454 0.621144-6.300173 1.597227-9.317157 2.839515-6.033969 2.484575-11.446794 6.122704-16.061006 10.736915-9.405893 9.494627-14.552513 21.917504-14.552513 35.22773 0 27.330329 22.272444 49.602773 49.602773 49.602773 27.330329 0 49.602773-22.272444 49.602773-49.602773 0-13.22149-5.14662-25.733102-14.552513-35.138995-4.614211-4.614211-10.027036-8.25234-16.061005-10.736915-3.016984-1.242288-6.122704-2.218371-9.317158-2.839515l0.798614-4.170537c3.460659 0.709879 6.832582 1.685962 10.115771 3.105719 6.566378 2.75078 12.422877 6.655113 17.480763 11.712998 10.204506 10.204506 15.794801 23.692201 15.7948 38.067245 0.088735 29.72617-24.135875 53.862045-53.862045 53.862045z" fill="#666666" /><path d="M612.791237 590.042288c-21.740035 0-39.398267 17.658232-39.398266 39.398267s17.658232 39.487002 39.398266 39.487001 39.398267-17.658232 39.398267-39.398267-17.569497-39.487002-39.398267-39.487001z" fill="#E29963" /><path d="M612.791237 670.169844c-22.449913 0-40.729289-18.279376-40.729289-40.729289s18.279376-40.640555 40.729289-40.640555c22.449913 0 40.729289 18.279376 40.72929 40.729289s-18.279376 40.640555-40.72929 40.640555z m0-78.796534c-21.030156 0-38.155979 17.125823-38.155979 38.155979s17.125823 38.155979 38.155979 38.15598 38.155979-17.125823 38.15598-38.15598-17.125823-38.155979-38.15598-38.155979z" fill="#666666" /><path d="M612.791237 595.810052c-2.395841 0-4.259272 1.863432-4.259272 4.259272 0 2.395841 1.863432 4.259272 4.259272 4.259272 2.395841 0 4.259272-1.863432 4.259273-4.259272 0-2.395841-1.863432-4.259272-4.259273-4.259272z" fill="#666666" /><path d="M500.428977 604.326821c-17.924437 0-32.388215 14.463778-32.388214 32.388215 0 17.835702 14.463778 32.388215 32.388214 32.388215 17.835702 0 32.388215-14.463778 32.388215-32.388215-0.088735-17.924437-14.552513-32.388215-32.388215-32.388215z" fill="#E29963" /><path d="M500.428977 670.345539c-18.545581 0-33.630503-15.084922-33.630502-33.630503s15.084922-33.630503 33.630502-33.630502 33.630503 15.084922 33.630503 33.630502-15.173657 33.630503-33.630503 33.630503z m0-64.77643c-17.125823 0-31.057192 13.931369-31.057192 31.057193s13.931369 31.057192 31.057192 31.057192 31.057192-13.931369 31.057193-31.057192c0-17.037088-13.931369-31.057192-31.057193-31.057193zM498.033137 595.808277c0-1.331023 1.064818-2.395841 2.39584-2.39584s2.395841 1.064818 2.395841 2.39584-1.064818 2.395841-2.395841 2.395841-2.395841-1.064818-2.39584-2.395841z m-14.286309 2.395841c0-1.331023 1.064818-2.395841 2.395841-2.395841 1.331023 0 2.395841 1.064818 2.395841 2.395841s-1.064818 2.395841-2.395841 2.39584c-1.331023 0-2.395841-1.064818-2.395841-2.39584z m28.483883 0c0-1.331023 1.064818-2.395841 2.39584-2.395841 1.331023 0 2.395841 1.064818 2.395841 2.395841s-1.064818 2.395841-2.395841 2.39584c-1.331023 0-2.395841-1.064818-2.39584-2.39584z m12.511611 7.453726c0-1.331023 1.064818-2.395841 2.395841-2.395841 1.331023 0 2.395841 1.064818 2.39584 2.395841s-1.064818 2.395841-2.39584 2.395841c-1.331023 0-2.395841-1.064818-2.395841-2.395841z m7.986136 11.00312c0-1.331023 1.064818-2.395841 2.39584-2.395841 1.331023 0 2.395841 1.064818 2.395841 2.395841s-1.064818 2.395841-2.395841 2.39584c-1.331023 0-2.395841-1.064818-2.39584-2.39584z" fill="#666666" /><path d="M509.83487 624.292159c-0.443674 0.443674-0.621144 0.976083-0.621144 1.508493 0 0.532409 0.266205 1.064818 0.621144 1.508492 0.443674 0.443674 0.976083 0.621144 1.508492 0.621144 0.532409 0 1.064818-0.266205 1.508492-0.621144l6.743848-6.743848c0.443674-0.443674 0.621144-0.976083 0.621144-1.508492 0-0.532409-0.266205-1.064818-0.621144-1.508492-0.443674-0.443674-0.976083-0.621144-1.508492-0.621144s-1.064818 0.266205-1.508492 0.621144l-6.743848 6.743847z" fill="#666666" /></svg>