<svg class="svg-icon" style="width: 1em;height: 1em;vertical-align: middle;fill: currentColor;overflow: hidden;" viewBox="0 0 1024 1024" version="1.1" xmlns="http://www.w3.org/2000/svg"><path d="M512 512m-512 0a512 512 0 1 0 1024 0 512 512 0 1 0-1024 0Z" fill="#FC8BA4" /><path d="M624 920c-17.6 0-32-14.4-32-32s14.4-32 32-32 32 14.4 32 32-14.4 32-32 32z m0-48.8c-9.6 0-16.8 8-16.8 16.8 0 9.6 8 16.8 16.8 16.8 9.6 0 16.8-8 16.8-16.8 0-9.6-7.2-16.8-16.8-16.8zM449.6 904.8c0-3.2-3.2-6.4-8-7.2l-15.2-2.4c-4-0.8-8.8-4.8-8.8-8.8l-2.4-15.2c-0.8-4-4-8-7.2-8s-6.4 3.2-7.2 8l-2.4 15.2c-0.8 4-4.8 8.8-8.8 8.8l-15.2 2.4c-4 0.8-8 4-8 7.2s3.2 6.4 8 7.2l15.2 2.4c4 0.8 8.8 4.8 8.8 8.8l2.4 15.2c0.8 4 4 8 7.2 8s6.4-3.2 7.2-8l2.4-16.8c0.8-4 4.8-8 8.8-8.8l14.4-0.8c5.6-1.6 8.8-4 8.8-7.2zM483.2 136.8c0-3.2-3.2-6.4-8-7.2l-14.4-1.6c-4-0.8-8.8-4.8-8.8-8.8l-3.2-15.2c-0.8-4-4-8-7.2-8s-6.4 3.2-7.2 8l-2.4 15.2c-0.8 4-4.8 8.8-8.8 8.8l-15.2 2.4c-4 0.8-8 4-8 7.2s3.2 6.4 8 7.2l15.2 2.4c4 0.8 8.8 4.8 8.8 8.8l2.4 15.2c0.8 4 4 8 7.2 8s6.4-3.2 7.2-8l2.4-16.8c0.8-4 4.8-8 8.8-8.8l14.4-0.8c5.6-1.6 8.8-4.8 8.8-8zM256 256c-17.6 0-32-14.4-32-32s14.4-32 32-32 32 14.4 32 32-14.4 32-32 32z m0-48.8c-9.6 0-16.8 8-16.8 16.8 0 9.6 8 16.8 16.8 16.8 9.6 0 16.8-8 16.8-16.8 0-9.6-7.2-16.8-16.8-16.8zM736 232c-17.6 0-32-14.4-32-32s14.4-32 32-32 32 14.4 32 32c-0.8 17.6-14.4 32-32 32z m0-48.8c-9.6 0-16.8 8-16.8 16.8 0 9.6 7.2 16.8 16.8 16.8 9.6 0 16.8-8 16.8-16.8 0-9.6-8-16.8-16.8-16.8z" fill="#FFFFFF" /><path d="M909.6 133.6c2.4 16.8 0 32-6.4 44.8 4 4.8 7.2 8.8 11.2 13.6 9.6-16.8 14.4-38.4 11.2-60.8C912 41.6 798.4 32.8 763.2 32c-78.4-1.6-141.6 20-187.2 64.8-56.8 56-69.6 132.8-69.6 157.6 0 4.8 3.2 8 8 8s8-3.2 8-8c0-23.2 11.2-94.4 64.8-145.6 42.4-42.4 101.6-62.4 176-60.8 120.8 2.4 143.2 60.8 146.4 85.6z" fill="#233E49" /><path d="M472 283.2a44.8 44 90 1 0 88 0 44.8 44 90 1 0-88 0Z" fill="#415E6D" /><path d="M516 336c-28.8 0-52-24-52-52.8 0-29.6 23.2-52.8 52-52.8s52 24 52 52.8c0 28.8-23.2 52.8-52 52.8z m0-90.4c-20 0-36 16.8-36 36.8 0 20.8 16 36.8 36 36.8s36-16.8 36-36.8c0-20-16-36.8-36-36.8z" fill="#233E49" /><path d="M576 304c0 12.8-10.4 24-24 24h-72c-12.8 0-24-10.4-24-24 0-12.8 10.4-24 24-24h72c13.6 0 24 10.4 24 24z" fill="#324D5B" /><path d="M552 336h-72c-17.6 0-32-14.4-32-32 0-18.4 14.4-32 32-32h72c17.6 0 32 14.4 32 32s-14.4 32-32 32z m-72-48c-8.8 0-16 7.2-16 16 0 9.6 7.2 16 16 16h72c8.8 0 16-7.2 16-16 0-9.6-7.2-16-16-16h-72z" fill="#233E49" /><path d="M1016 779.2c0 16-12.8 28.8-28.8 28.8H36.8c-16 0-28.8-12.8-28.8-28.8V340.8c0-16 12.8-28.8 28.8-28.8h950.4c16 0 28.8 12.8 28.8 28.8v438.4z" fill="#415E6D" /><path d="M888.8 480H130.4c-16 0-26.4 11.2-26.4 26.4V808h816V506.4c0-15.2-15.2-26.4-31.2-26.4z" fill="#EAEAEA" /><path d="M920 500c0-11.2-3.2-20-9.6-20H117.6c-6.4 0-13.6 8.8-13.6 20v0.8c0 11.2 7.2 20 13.6 20h792.8c6.4-0.8 9.6-9.6 9.6-20.8z" fill="#D4D6D6" /><path d="M920 816H104c-4.8 0-8-3.2-8-8V506.4c0-20 14.4-34.4 34.4-34.4h766.4c19.2 0 31.2 13.6 31.2 34.4V808c0 4.8-3.2 8-8 8z m-808-16h800V506.4c0-18.4-11.2-18.4-15.2-18.4H130.4c-11.2 0-18.4 7.2-18.4 18.4V800z" fill="#233E49" /><path d="M981.6 312H30.4c-16 0-30.4 13.6-30.4 28V432h1008V340c0-14.4-11.2-28-26.4-28z" fill="#324D5B" /><path d="MNaN NaNaNaN NaN NaN 1 0 NaN NaN NaN NaN NaN 1 0 NaN NaNZ" fill="#22B573" /><path d="M243.2 344c-17.6-1.6-32.8 11.2-34.4 28.8-1.6 17.6 11.2 32.8 28.8 34.4 17.6 1.6 32.8-11.2 34.4-28.8 1.6-16.8-11.2-32.8-28.8-34.4z m-4.8 48c-8.8-0.8-15.2-8.8-14.4-17.6 0.8-8.8 8.8-15.2 17.6-14.4 8.8 0.8 15.2 8.8 14.4 17.6-0.8 8.8-8.8 15.2-17.6 14.4z" fill="#233E49" /><path d="M80 376m-24 0a24 24 0 1 0 48 0 24 24 0 1 0-48 0Z" fill="#C1272D" /><path d="M80 408c-17.6 0-32-14.4-32-32s14.4-32 32-32 32 14.4 32 32-14.4 32-32 32z m0-48c-8.8 0-16 7.2-16 16s7.2 16 16 16 16-7.2 16-16-7.2-16-16-16z" fill="#233E49" /><path d="M160 376m-24 0a24 24 0 1 0 48 0 24 24 0 1 0-48 0Z" fill="#22B573" /><path d="M160 408c-17.6 0-32-14.4-32-32s14.4-32 32-32 32 14.4 32 32-14.4 32-32 32z m0-48c-8.8 0-16 7.2-16 16s7.2 16 16 16 16-7.2 16-16-7.2-16-16-16z" fill="#233E49" /><path d="M432 344h160v64H432z" fill="#C5ECFF" /><path d="M592 416H432c-4.8 0-8-3.2-8-8v-64c0-4.8 3.2-8 8-8h160c4.8 0 8 3.2 8 8v64c0 4.8-3.2 8-8 8z m-152-16h144v-48H440v48z" fill="#233E49" /><path d="M940 372m-36 0a36 36 0 1 0 72 0 36 36 0 1 0-72 0Z" fill="#233E49" /><path d="M144 480h64v176h-64z" fill="#233E49" /><path d="M176 816c-4.8 0-8-3.2-8-8V496c0-4.8 3.2-8 8-8s8 3.2 8 8v312c0 4.8-3.2 8-8 8zM240 480h64v176h-64z" fill="#233E49" /><path d="M272 816c-4.8 0-8-3.2-8-8V496c0-4.8 3.2-8 8-8s8 3.2 8 8v312c0 4.8-3.2 8-8 8zM336 480h64v176h-64z" fill="#233E49" /><path d="M368 816c-4.8 0-8-3.2-8-8V496c0-4.8 3.2-8 8-8s8 3.2 8 8v312c0 4.8-3.2 8-8 8zM432 480h64v176h-64z" fill="#233E49" /><path d="M464 816c-4.8 0-8-3.2-8-8V496c0-4.8 3.2-8 8-8s8 3.2 8 8v312c0 4.8-3.2 8-8 8zM528 480h64v176h-64z" fill="#233E49" /><path d="M560 816c-4.8 0-8-3.2-8-8V496c0-4.8 3.2-8 8-8s8 3.2 8 8v312c0 4.8-3.2 8-8 8zM624 480h64v176h-64z" fill="#233E49" /><path d="M656 816c-4.8 0-8-3.2-8-8V496c0-4.8 3.2-8 8-8s8 3.2 8 8v312c0 4.8-3.2 8-8 8zM720 480h64v176h-64z" fill="#233E49" /><path d="M752 816c-4.8 0-8-3.2-8-8V496c0-4.8 3.2-8 8-8s8 3.2 8 8v312c0 4.8-3.2 8-8 8zM816 480h64v176h-64z" fill="#233E49" /><path d="M848 816c-4.8 0-8-3.2-8-8V496c0-4.8 3.2-8 8-8s8 3.2 8 8v312c0 4.8-3.2 8-8 8z" fill="#233E49" /><path d="M987.2 816H36.8C16.8 816 0 799.2 0 779.2V340.8C0 320.8 16.8 304 36.8 304h950.4c20 0 36.8 16.8 36.8 36.8v438.4c0 20-16.8 36.8-36.8 36.8zM36.8 320C25.6 320 16 329.6 16 340.8v438.4c0 11.2 9.6 20.8 20.8 20.8h950.4c11.2 0 20.8-9.6 20.8-20.8V340.8c0-11.2-9.6-20.8-20.8-20.8H36.8z" fill="#233E49" /><path d="M808 352H656c-4.8 0-8-3.2-8-8s3.2-8 8-8h152c4.8 0 8 3.2 8 8s-3.2 8-8 8zM808 384H656c-4.8 0-8-3.2-8-8s3.2-8 8-8h152c4.8 0 8 3.2 8 8s-3.2 8-8 8zM808 416H656c-4.8 0-8-3.2-8-8s3.2-8 8-8h152c4.8 0 8 3.2 8 8s-3.2 8-8 8z" fill="#233E49" /><path d="M984 768c-4.8 0-8-3.2-8-8V592c0-4.8 3.2-8 8-8s8 3.2 8 8v168c0 4.8-3.2 8-8 8zM984 552c-4.8 0-8-3.2-8-8v-72c0-4.8 3.2-8 8-8s8 3.2 8 8v72c0 4.8-3.2 8-8 8zM184 632c-4.8 0-8-3.2-8-8v-72c0-4.8 3.2-8 8-8s8 3.2 8 8v72c0 4.8-3.2 8-8 8zM280 632c-4.8 0-8-3.2-8-8v-72c0-4.8 3.2-8 8-8s8 3.2 8 8v72c0 4.8-3.2 8-8 8zM376 632c-4.8 0-8-3.2-8-8v-72c0-4.8 3.2-8 8-8s8 3.2 8 8v72c0 4.8-3.2 8-8 8zM472 632c-4.8 0-8-3.2-8-8v-72c0-4.8 3.2-8 8-8s8 3.2 8 8v72c0 4.8-3.2 8-8 8zM568 632c-4.8 0-8-3.2-8-8v-72c0-4.8 3.2-8 8-8s8 3.2 8 8v72c0 4.8-3.2 8-8 8zM664 632c-4.8 0-8-3.2-8-8v-72c0-4.8 3.2-8 8-8s8 3.2 8 8v72c0 4.8-3.2 8-8 8zM760 632c-4.8 0-8-3.2-8-8v-72c0-4.8 3.2-8 8-8s8 3.2 8 8v72c0 4.8-3.2 8-8 8zM848 632c-4.8 0-8-3.2-8-8v-72c0-4.8 3.2-8 8-8s8 3.2 8 8v72c0 4.8-3.2 8-8 8z" fill="#FFFFFF" opacity=".5" /><path d="M520 384h-56c-4.8 0-8-3.2-8-8s3.2-8 8-8h56c4.8 0 8 3.2 8 8s-3.2 8-8 8z" fill="#707D8E" /></svg>